<?xml version="1.0" encoding="UTF-8"?>
<svg version="1.1" xmlns="http://www.w3.org/2000/svg" width="826" height="946">
<path d="M0 0 C3.97674274 1.89639402 4.68537753 3.66867468 6.49316406 7.64501953 C6.78346497 8.26837189 7.07376587 8.89172424 7.37286377 9.53396606 C8.28175896 11.4974879 9.16154798 13.47242708 10.04003906 15.44970703 C10.58595703 16.63661133 11.131875 17.82351562 11.69433594 19.04638672 C13.10869567 22.1315745 14.50490171 25.22369584 15.89190674 28.32119751 C21.97291888 41.88642104 28.26482088 55.34498586 34.66503906 68.76220703 C36.2850642 72.15923119 37.9049789 75.55630782 39.52441406 78.95361328 C39.91416412 79.77124146 40.30391418 80.58886963 40.70547485 81.43127441 C45.71070813 91.9428075 50.60004972 102.50738318 55.48095703 113.07714844 C57.15421373 116.69668618 58.83253545 120.31383889 60.51269531 123.93017578 C60.80358032 124.55628754 61.09446533 125.18239929 61.39416504 125.82748413 C61.97427929 127.07604103 62.55441818 128.32458649 63.13458252 129.57312012 C64.93677897 133.45154187 66.73887923 137.32999615 68.53564453 141.2109375 C69.60117548 143.50488972 70.67285134 145.79524022 71.75146484 148.08300781 C72.3017334 149.25718262 72.85200195 150.43135742 73.41894531 151.64111328 C73.92111572 152.706604 74.42328613 153.77209473 74.94067383 154.86987305 C76.04003906 157.44970703 76.04003906 157.44970703 76.04003906 159.44970703 C76.93722656 159.31693359 77.83441406 159.18416016 78.75878906 159.04736328 C114.33234185 154.01267657 148.96546535 157.2891045 184.04003906 164.44970703 C184.04003906 165.10970703 184.04003906 165.76970703 184.04003906 166.44970703 C185.12800781 166.54251953 186.21597656 166.63533203 187.33691406 166.73095703 C192.8785658 167.43156972 198.01514941 169.1639216 203.29003906 170.94970703 C204.34199463 171.30427979 205.3939502 171.65885254 206.4777832 172.02416992 C221.42315247 177.17949409 235.48457984 183.93178576 249.35644531 191.47314453 C252.22804639 193.03182727 255.13640662 194.4526857 258.10253906 195.82470703 C273.21048165 203.30159698 287.45401105 215.01721493 299.78613281 226.37939453 C301.79307389 228.2228586 303.83916149 229.99749796 305.91503906 231.76220703 C315.20848338 239.89162398 323.40463923 248.75806958 331.04003906 258.44970703 C332.02037109 259.62919922 332.02037109 259.62919922 333.02050781 260.83251953 C344.75780894 275.02973407 354.27402243 291.15061062 362.81738281 307.42626953 C363.22661987 308.20268799 363.63585693 308.97910645 364.05749512 309.77905273 C365.05313047 311.66850535 366.04679412 313.55899673 367.04003906 315.44970703 C367.76118456 315.34663239 368.48233006 315.24355774 369.22532845 315.13735962 C386.77670912 312.62900256 404.32874392 310.12527095 421.88151741 307.62667847 C430.3699048 306.41826455 438.85806413 305.20828923 447.34570312 303.99462891 C454.74397831 302.93674241 462.14266558 301.88179478 469.54186141 300.83036613 C473.45922971 300.27360209 477.3763767 299.71537403 481.2930336 299.15362549 C484.98111042 298.62470855 488.66972653 298.09972929 492.35878944 297.5777359 C494.35475175 297.29427569 496.35012386 297.00666927 498.34547424 296.71893311 C499.54011795 296.55065002 500.73476166 296.38236694 501.96560669 296.20898438 C503.51698428 295.98775406 503.51698428 295.98775406 505.09970284 295.76205444 C513.18708851 294.90294386 513.18708851 294.90294386 516.47753906 297.01220703 C518.04003906 299.44970703 518.04003906 299.44970703 518.15332031 302.67626953 C516.54844996 308.11593534 513.28909139 310.05377729 508.79003906 313.26220703 C507.96955078 313.87257813 507.1490625 314.48294922 506.30371094 315.11181641 C504.6505482 316.34102498 502.99174196 317.56268306 501.32714844 318.77636719 C498.35641759 320.94987159 495.44861908 323.19369304 492.54003906 325.44970703 C491.51394531 326.23732422 490.48785156 327.02494141 489.43066406 327.83642578 C485.36965752 330.96018322 481.33131041 334.11299176 477.29003906 337.26220703 C469.27861355 343.50214316 461.22369811 349.68317455 453.14892578 355.84082031 C449.61017025 358.5405655 446.07531183 361.24540392 442.54003906 363.94970703 C441.12339087 365.03306453 439.70672421 366.11639787 438.29003906 367.19970703 C437.58878906 367.73595703 436.88753906 368.27220703 436.16503906 368.82470703 C434.04003906 370.44970703 431.91503906 372.07470703 429.79003906 373.69970703 C429.0879834 374.23660156 428.38592773 374.77349609 427.66259766 375.32666016 C426.25418001 376.40362824 424.84565239 377.48045254 423.43701172 378.55712891 C419.76819331 381.36164611 416.10165199 384.16907205 412.43847656 386.98095703 C411.68115234 387.56167969 410.92382812 388.14240234 410.14355469 388.74072266 C408.70663898 389.84265188 407.27038997 390.94545127 405.83496094 392.04931641 C393.56991862 401.44970703 393.56991862 401.44970703 391.04003906 401.44970703 C391.37003906 402.43970703 391.70003906 403.42970703 392.04003906 404.44970703 C392.34544576 407.54194979 392.54836217 410.63482422 392.75878906 413.73486328 C392.87500644 416.41353019 392.87500644 416.41353019 394.04003906 418.44970703 C394.13867077 420.89558724 394.1799036 423.31231375 394.17285156 425.75830078 C394.17380829 426.48082535 394.17476501 427.20334991 394.17575073 427.94776917 C394.17643158 429.4768177 394.17458392 431.00586912 394.17041016 432.53491211 C394.16506827 434.8744152 394.1703543 437.21372562 394.17675781 439.55322266 C394.17609686 441.03824912 394.17481535 442.52327547 394.17285156 444.00830078 C394.17487579 444.70837753 394.17690002 445.40845428 394.1789856 446.12974548 C394.16427447 449.18197486 394.01338931 451.52965628 393.04003906 454.44970703 C392.80303721 456.20472973 392.60364266 457.96495365 392.42675781 459.72705078 C392.31509277 460.78633789 392.20342773 461.845625 392.08837891 462.93701172 C391.96930176 464.07557617 391.85022461 465.21414063 391.72753906 466.38720703 C390.96305135 473.5230733 390.14989119 480.51951939 388.44946289 487.49658203 C385.8513117 498.20727933 385.40697596 508.91681516 385.04003906 519.88720703 C385.00585876 520.7074939 384.97167847 521.52778076 384.9364624 522.3729248 C384.56249262 531.86154723 384.79593788 539.85323032 388.12841797 548.84960938 C390.71087283 556.21520774 389.02219226 565.08766595 385.85253906 572.06298828 C380.48114678 581.68186739 373.56935167 587.25484219 363.04003906 590.44970703 C359.05265494 591.45311126 355.33306847 591.55367703 351.22753906 591.51220703 C350.06609375 591.50318359 348.90464844 591.49416016 347.70800781 591.48486328 C346.82757812 591.47326172 345.94714844 591.46166016 345.04003906 591.44970703 C344.81058594 592.14193359 344.58113281 592.83416016 344.34472656 593.54736328 C342.75785577 597.07743813 340.5786877 599.89898037 338.16503906 602.88720703 C337.43148193 603.80409302 337.43148193 603.80409302 336.68310547 604.73950195 C335.14480476 606.6507463 333.59443184 608.55153537 332.04003906 610.44970703 C331.57275391 611.02430664 331.10546875 611.59890625 330.62402344 612.19091797 C319.12140834 626.25599683 306.375444 639.27257099 292.04003906 650.44970703 C291.25628906 651.12388672 290.47253906 651.79806641 289.66503906 652.49267578 C272.76361401 666.99092946 236.247947 695.44970703 213.04003906 695.44970703 C213.14815918 696.59592529 213.2562793 697.74214355 213.36767578 698.9230957 C215.13464618 718.19431932 216.42670059 737.50055593 217.75439453 756.8059082 C218.09805148 761.80084077 218.44677552 766.79540584 218.79675484 771.78989887 C219.06851946 775.67866282 219.3371167 779.56764085 219.60482407 783.45668602 C219.73211114 785.29898795 219.86047669 787.14121572 219.98999405 788.9833622 C221.7779269 814.46585658 221.7779269 814.46585658 218.97753906 818.19970703 C216.04003906 819.44970703 216.04003906 819.44970703 212.62548828 819.02929688 C207.69191283 816.85578243 206.76414255 814.2312191 204.73535156 809.42626953 C204.37024475 808.61795685 204.00513794 807.80964417 203.62896729 806.97683716 C202.45032972 804.35275695 201.30781407 801.71457632 200.16503906 799.07470703 C199.35701243 797.25887749 198.54662148 795.44409824 197.73388672 793.63037109 C196.20022218 790.19846694 194.68006166 786.76128733 193.17578125 783.31640625 C191.30556594 779.03783249 189.39360489 774.77912515 187.4671936 770.52558899 C186.45630198 768.29092241 185.45369581 766.05272702 184.45410156 763.81298828 C179.93084347 753.72624487 175.30162036 743.68684405 170.69967651 733.63583374 C170.0475357 732.21056143 169.39609326 730.78496934 168.74539185 729.35903931 C167.32594281 726.24949943 165.89734456 723.14584808 164.44433594 720.05175781 C163.98607422 719.07062012 163.5278125 718.08948242 163.05566406 717.07861328 C162.6615332 716.24531494 162.26740234 715.4120166 161.86132812 714.5534668 C161.04003906 712.44970703 161.04003906 712.44970703 161.04003906 709.44970703 C159.75742187 709.75650391 158.47480469 710.06330078 157.15332031 710.37939453 C95.70114918 723.96091121 22.71182628 705.88736446 -29.86425781 672.80761719 C-36.3877276 668.58073707 -42.70194148 664.05767972 -48.95996094 659.44970703 C-49.80945313 658.82451172 -50.65894531 658.19931641 -51.53417969 657.55517578 C-61.19617634 650.21491585 -70.57365083 642.22208768 -78.95996094 633.44970703 C-81.43630296 630.95289937 -83.92830061 628.48003585 -86.46777344 626.04736328 C-91.5111832 621.16203054 -96.17958764 616.15820021 -100.52246094 610.63720703 C-100.98845703 610.05825684 -101.45445312 609.47930664 -101.93457031 608.8828125 C-104.30747081 605.863587 -106.29551727 602.92907835 -107.99511719 599.48095703 C-111.03923543 593.65298073 -111.03923543 593.65298073 -115.95996094 589.44970703 C-124.22331489 587.44133081 -132.50154304 588.1825991 -140.95996094 588.44970703 C-140.95996094 574.91970703 -140.95996094 561.38970703 -140.95996094 547.44970703 C-140.29996094 547.44970703 -139.63996094 547.44970703 -138.95996094 547.44970703 C-139.25241699 546.68416504 -139.54487305 545.91862305 -139.84619141 545.12988281 C-140.9445877 542.24337925 -142.03583303 539.35429452 -143.12255859 536.46337891 C-143.81951801 534.61564824 -144.52441749 532.77091874 -145.22949219 530.92626953 C-145.89658203 529.14736328 -145.89658203 529.14736328 -146.57714844 527.33251953 C-146.98562012 526.25373535 -147.3940918 525.17495117 -147.81494141 524.06347656 C-148.75692635 521.09049979 -149.43815036 518.27505381 -150.03152466 515.22384644 C-150.20681765 514.32833006 -150.38211063 513.43281368 -150.56271553 512.51016045 C-150.69380651 511.83021082 -150.8248975 511.15026119 -150.95996094 510.44970703 C-151.6614133 510.50731988 -152.36286566 510.56493273 -153.08557415 510.62429142 C-170.15261766 512.0255868 -187.22027294 513.41917478 -204.28864574 514.80418491 C-212.54276091 515.47415075 -220.79664808 516.14672454 -229.05004883 516.82543945 C-236.2436146 517.41699263 -243.43755989 518.00365116 -250.63200361 518.58443302 C-254.44146377 518.89212926 -258.25068873 519.20227459 -262.05946922 519.51828194 C-265.64498433 519.81568755 -269.23097105 520.10654175 -272.81742477 520.39239883 C-274.75988691 520.54893187 -276.70178714 520.71238945 -278.6436615 520.87605286 C-279.80327393 520.96723389 -280.96288635 521.05841492 -282.15763855 521.15235901 C-283.66615277 521.27541837 -283.66615277 521.27541837 -285.20514202 521.40096378 C-288.76607488 521.46397026 -291.75429665 521.1731056 -294.83496094 519.32470703 C-295.95996094 517.44970703 -295.95996094 517.44970703 -296.02246094 514.01220703 C-294.71799064 509.63839487 -292.77016055 508.5275215 -288.95996094 506.44970703 C-286.0541588 505.04737942 -283.09408737 503.80192823 -280.11230469 502.57080078 C-278.80993866 502.02401672 -278.80993866 502.02401672 -277.48126221 501.46618652 C-274.62238279 500.26739729 -271.75994732 499.07735461 -268.89746094 497.88720703 C-266.88913024 497.04679718 -264.88107788 496.20572193 -262.87329102 495.36401367 C-258.68513397 493.60880061 -254.49578018 491.85648775 -250.30566406 490.10595703 C-241.20061644 486.29875946 -232.11326961 482.44974096 -223.02441406 478.60409546 C-207.85762573 472.18887477 -192.68687945 465.78284622 -177.46728516 459.49365234 C-175.55919247 458.69920207 -173.65531068 457.8946297 -171.75341797 457.08544922 C-170.66786621 456.62557617 -169.58231445 456.16570312 -168.46386719 455.69189453 C-167.46299072 455.26505371 -166.46211426 454.83821289 -165.4309082 454.3984375 C-162.95996094 453.44970703 -162.95996094 453.44970703 -160.95996094 453.44970703 C-161.03214844 452.73427734 -161.10433594 452.01884766 -161.17871094 451.28173828 C-161.27152344 450.28529297 -161.36433594 449.28884766 -161.45996094 448.26220703 C-161.55277344 447.29927734 -161.64558594 446.33634766 -161.74121094 445.34423828 C-163.30340533 417.53159883 -159.44955438 389.55099449 -152.64746094 362.63720703 C-152.25844604 361.0834436 -152.25844604 361.0834436 -151.86157227 359.49829102 C-150.59099909 354.69080805 -149.29139622 350.06260648 -147.20019531 345.54443359 C-140.57812027 330.76151108 -140.96755737 315.86782014 -141.07403564 299.9989624 C-141.09603905 295.62003837 -141.07148341 291.2411544 -141.05198479 286.86225319 C-141.03739843 283.46819056 -141.03261268 280.07513751 -141.0461731 276.68099976 C-141.04882172 275.48109406 -141.05147034 274.28118835 -141.05419922 273.04492188 C-141.05976837 271.98526215 -141.06533752 270.92560242 -141.07107544 269.83383179 C-140.95996094 267.44970703 -140.95996094 267.44970703 -139.95996094 266.44970703 C-137.47334314 266.4256799 -135.00729383 266.45962808 -132.52246094 266.52001953 C-130.97169841 266.53093369 -129.42091063 266.53863879 -127.87011719 266.54345703 C-125.42354979 266.5512751 -122.9830076 266.57397303 -120.53759766 266.65185547 C-110.6227353 267.14187894 -110.6227353 267.14187894 -101.96557617 263.08569336 C-99.69850079 260.30842736 -97.82855367 257.50410176 -95.95996094 254.44970703 C-84.79823359 240.95411578 -71.91583609 228.02884596 -57.95996094 217.44970703 C-56.80938274 216.53670036 -55.65970602 215.62255695 -54.51074219 214.70751953 C-34.24486266 198.79648658 -10.7865171 186.16918968 13.04003906 176.44970703 C10.95400959 158.44076798 8.60615718 140.47144052 6.1735611 122.50683022 C5.54030252 117.82832107 4.9114135 113.14923038 4.28338623 108.47001648 C4.12276258 107.27349527 4.12276258 107.27349527 3.95889401 106.05280191 C3.74050219 104.42593539 3.52211725 102.79906795 3.30373907 101.17219961 C1.8471209 90.32247226 0.38736239 79.47318315 -1.08251953 68.62524414 C-2.08307209 61.24076948 -3.07735768 53.85548065 -4.06443429 46.46919221 C-4.58445927 42.57979557 -5.1076762 38.69088919 -5.63866425 34.80297279 C-6.1354686 31.16511139 -6.62403825 27.52623911 -7.10632133 23.88642502 C-7.36890602 21.92130655 -7.64028576 19.95736954 -7.91194153 17.9934845 C-8.1431797 16.23046997 -8.1431797 16.23046997 -8.37908936 14.43183899 C-8.51622723 13.41530904 -8.6533651 12.39877909 -8.79465866 11.3514452 C-8.97522572 8.18174698 -8.7140832 5.53233228 -7.95996094 2.44970703 C-5.09336279 -0.1711827 -3.84401223 -0.71464893 0 0 Z " fill="#F4F4F4" transform="translate(303.9599609375,63.55029296875)"/>
<path d="M0 0 C17.79691922 -0.06830688 35.59372267 -0.12331931 53.39073753 -0.15543652 C61.65832664 -0.17076016 69.92582721 -0.19156344 78.19335938 -0.22631836 C85.41802182 -0.25667422 92.64262003 -0.27567955 99.8673445 -0.28226548 C103.67582849 -0.28610166 107.48412914 -0.29479303 111.29255295 -0.31719017 C127.44127579 -0.40830339 143.42551983 -0.03441081 159.51806641 1.40112305 C160.23204865 1.46434238 160.9460309 1.52756171 161.68164897 1.59269679 C185.23764642 3.72595077 207.15609497 9.12278229 223 28 C233.14338644 42.29295362 235.90764889 57.29961254 233.52734375 74.39453125 C230.26435684 89.30266904 221.99828338 100.93208798 209.82421875 109.94140625 C207.88675859 111.06571397 206.17080845 111.5006438 204 112 C207.92380002 120.34513547 212.61466077 128.15805296 217.4375 136 C218.55192617 137.82073894 219.66522804 139.64213631 220.77603149 141.46508789 C221.50206618 142.64849833 222.23539188 143.82746852 222.97616577 145.00170898 C224.62987149 147.63921855 226.09304675 150.2122534 227.34423828 153.06640625 C228.65379465 156.24009272 228.65379465 156.24009272 232 160 C236.95 160.33 241.9 160.66 247 161 C247 177.5 247 194 247 211 C221.92 211 196.84 211 171 211 C166 202 166 202 166 200 C165.01 199.67 164.02 199.34 163 199 C161.89453125 197.27734375 161.89453125 197.27734375 160.8125 194.9375 C160.37421875 194.01839844 159.9359375 193.09929687 159.484375 192.15234375 C158.99453125 191.11207031 158.5046875 190.07179688 158 189 C152.72230374 178.14997881 147.1891601 167.43792508 141.31958008 156.89477539 C138.41171156 151.65203812 135.72215488 146.51739941 133.56640625 140.91796875 C130.51974005 133.10277374 130.51974005 133.10277374 125 127 C116.37763944 124.33373738 107.95603787 125.45445455 99 126 C99 137.55 99 149.1 99 161 C104.28 161 109.56 161 115 161 C115.02792596 164.64588955 115.04726319 168.29155 115.0625 171.9375 C115.07087891 172.92041016 115.07925781 173.90332031 115.08789062 174.91601562 C115.12502036 186.98318045 114.48399202 198.90019961 114 211 C76.71 211 39.42 211 1 211 C0 176 0 176 0 161 C5.61 161 11.22 161 17 161 C17 124.7 17 88.4 17 51 C11.39 51 5.78 51 0 51 C0 34.17 0 17.34 0 0 Z " fill="#2F2A2C" transform="translate(429,342)"/>
<path d="M0 0 C28.05 0 56.1 0 85 0 C85 16.83 85 33.66 85 51 C78.73 51 72.46 51 66 51 C66 104.46 66 157.92 66 213 C43.56 213 21.12 213 -2 213 C-5.50896427 209.49103573 -8.05529363 206.74811341 -10.76953125 202.76953125 C-11.76049805 201.31836914 -11.76049805 201.31836914 -12.77148438 199.83789062 C-13.44501953 198.83951172 -14.11855469 197.84113281 -14.8125 196.8125 C-15.85180664 195.2975293 -15.85180664 195.2975293 -16.91210938 193.75195312 C-22 186.25796644 -22 186.25796644 -22 184 C-22.66 184 -23.32 184 -24 184 C-24.53753906 183.01515625 -25.07507813 182.0303125 -25.62890625 181.015625 C-28.09843734 176.69800553 -30.98654666 172.74755103 -33.9375 168.75 C-38.54303603 162.44370764 -43.0481262 156.08364042 -47.4375 149.625 C-51.90843339 143.04735468 -56.42741829 136.50742725 -61 130 C-66.15287025 122.66277639 -71.25069353 115.2905392 -76.29882812 107.88085938 C-80.83161056 101.22916669 -85.41763961 94.61896501 -90 88 C-90.33 111.76 -90.66 135.52 -91 160 C-84.73 160 -78.46 160 -72 160 C-72 176.83 -72 193.66 -72 211 C-100.71 211 -129.42 211 -159 211 C-159 194.17 -159 177.34 -159 160 C-152.73 160 -146.46 160 -140 160 C-140 123.7 -140 87.4 -140 50 C-145.94 50 -151.88 50 -158 50 C-158 33.83 -158 17.66 -158 1 C-133.56482205 0.23793262 -133.56482205 0.23793262 -123.08789062 0.07226562 C-115.9576101 -0.04101969 -108.83199615 -0.17446342 -101.70532227 -0.43334961 C-95.95356866 -0.64096424 -90.20681759 -0.75361513 -84.45160484 -0.80266762 C-82.2649625 -0.83757981 -80.07857266 -0.90577582 -77.89408302 -1.00887108 C-61.24882285 -1.76264501 -61.24882285 -1.76264501 -55.82012939 2.85365868 C-51.86297912 7.38934641 -48.94418235 12.40186021 -46.20009899 17.73736763 C-44.57446448 20.80229252 -42.6552955 23.5191888 -40.6171875 26.32421875 C-39.99336182 27.21898926 -39.36953613 28.11375977 -38.72680664 29.03564453 C-38.11571045 29.91075684 -37.50461426 30.78586914 -36.875 31.6875 C-31.80503247 38.96161598 -26.75143044 46.24613051 -21.73657227 53.55834961 C-18.94260076 57.63211632 -16.13190794 61.69380774 -13.3125 65.75 C-10.48687067 69.82031153 -7.72239118 73.92253235 -5 78.0625 C-1.68119447 83.07363295 1.85343734 87.87213441 5.53125 92.625 C9.19181 97.62930987 12.56073278 102.84109917 16 108 C16.33 89.19 16.66 70.38 17 51 C11.39 51 5.78 51 0 51 C0 34.17 0 17.34 0 0 Z " fill="#2E292B" transform="translate(334,342)"/>
<path d="M0 0 C4.62 0 9.24 0 14 0 C14 2.64 14 5.28 14 8 C12.02 8 10.04 8 8 8 C8 21.2 8 34.4 8 48 C28.79 48 49.58 48 71 48 C71 34.8 71 21.6 71 8 C69.02 8 67.04 8 65 8 C65 7.67 65 7.34 65 7 C69.62 7 74.24 7 79 7 C79 7.33 79 7.66 79 8 C77.02 8 75.04 8 73 8 C73 21.2 73 34.4 73 48 C92.8 48 112.6 48 133 48 C133 48.66 133 49.32 133 50 C145.87 50 158.74 50 172 50 C176.68865332 59.37730664 181.29543366 68.63481671 185.4777832 78.22558594 C191.92774947 92.97570631 198.54855451 107.64135418 205.3125 122.25 C205.69201813 123.07047821 206.07153625 123.89095642 206.46255493 124.73629761 C209.87064353 132.10390554 213.28536519 139.46839353 216.71357727 146.82666016 C218.00013246 149.59111296 219.2806483 152.35836379 220.5625 155.125 C221.00956299 156.07793945 221.45662598 157.03087891 221.91723633 158.01269531 C222.51701294 159.30965332 222.51701294 159.30965332 223.12890625 160.6328125 C223.46994385 161.36387207 223.81098145 162.09493164 224.16235352 162.84814453 C225.08186522 165.21030605 225.57100656 167.50587752 226 170 C164.01430046 184.82673014 90.7763942 167.46670618 37.140625 134.64453125 C29.87837577 130.07527941 22.90681666 125.08570208 16 120 C15.15050781 119.37480469 14.30101562 118.74960937 13.42578125 118.10546875 C3.7637846 110.76520881 -5.61368989 102.77238065 -14 94 C-16.47634202 91.50319234 -18.96833967 89.03032882 -21.5078125 86.59765625 C-31.05771842 77.34707574 -38.90321507 66.99892922 -46.6875 56.25 C-47.12199463 55.65340576 -47.55648926 55.05681152 -48.00415039 54.44213867 C-51 50.23938091 -51 50.23938091 -51 48 C-35.82 48 -20.64 48 -5 48 C-5 38.1 -5 28.2 -5 18 C-3.35 18 -1.7 18 0 18 C0 12.06 0 6.12 0 0 Z " fill="#251F21" transform="translate(239,603)"/>
<path d="M0 0 C0 0.66 0 1.32 0 2 C1.63195312 2.13921875 1.63195312 2.13921875 3.296875 2.28125 C8.83852674 2.98186269 13.97511035 4.71421457 19.25 6.5 C20.30195557 6.85457275 21.35391113 7.20914551 22.43774414 7.57446289 C37.38311341 12.72978706 51.44454078 19.48207872 65.31640625 27.0234375 C68.18800733 28.58212024 71.09636756 30.00297867 74.0625 31.375 C89.17044259 38.85188995 103.41397199 50.5675079 115.74609375 61.9296875 C117.75303483 63.77315157 119.79912242 65.54779093 121.875 67.3125 C131.16844431 75.44191694 139.36460017 84.30836255 147 94 C147.98033203 95.17949219 147.98033203 95.17949219 148.98046875 96.3828125 C156.93202922 106.00086768 163.5889076 116.53874827 170.0625 127.1875 C170.6356897 128.12275513 170.6356897 128.12275513 171.22045898 129.0769043 C172.96635017 131.9933953 174.4543727 134.61711075 175 138 C174.360625 137.360625 173.72125 136.72125 173.0625 136.0625 C172.37220703 135.37994141 172.37220703 135.37994141 171.66796875 134.68359375 C170.4416798 133.44581731 169.23921204 132.18432553 168.05078125 130.91015625 C159.69870427 122.1382262 150.16840817 116.54137079 139 112 C138.3090625 111.71382813 137.618125 111.42765625 136.90625 111.1328125 C111.80119398 101.76669544 82.16333585 103.68572448 55.78157496 103.59528303 C51.72841267 103.57936236 47.67531951 103.55266923 43.62220764 103.5272522 C35.99092589 103.48096522 28.35963036 103.44398346 20.72828251 103.41057932 C12.02165813 103.37199778 3.31510404 103.32268567 -5.39146054 103.27259517 C-23.26092185 103.17002282 -41.13042639 103.0805263 -59 103 C-61.31661375 98.10232459 -63.63234878 93.20423497 -65.94732666 88.30578613 C-66.73233234 86.64503195 -67.51756369 84.9843844 -68.30303955 83.32385254 C-73.71882264 71.87412907 -79.06330442 60.39649662 -84.31640625 48.87109375 C-87.13142714 42.69966104 -89.9811482 36.5444825 -92.83792114 30.39230347 C-93.67502337 28.58937187 -94.51122459 26.78602203 -95.34741211 24.98266602 C-97.74094587 19.82800329 -100.14403071 14.67918889 -102.6015625 9.5546875 C-102.98094971 8.76118896 -103.36033691 7.96769043 -103.7512207 7.15014648 C-104.43465066 5.72527284 -105.12291967 4.30270498 -105.81713867 2.88305664 C-107.17792253 0.04538363 -108 -1.80687442 -108 -5 C-71.45587497 -10.40811046 -36.08547906 -7.36698256 0 0 Z " fill="#AF202B" transform="translate(488,228)"/>
<path d="M0 0 C3.23896277 1.26110077 6.37197644 2.6257678 9.484375 4.171875 C44.58396936 21.399965 78.26593993 26.40886468 117 27 C117.33 26.34 117.66 25.68 118 25 C118.3309668 25.74233887 118.66193359 26.48467773 119.00292969 27.24951172 C126.0157341 42.96678465 133.10230039 58.64423079 140.34375 74.2578125 C140.78332031 75.20946289 141.22289062 76.16111328 141.67578125 77.14160156 C142.58299315 79.09986796 143.49742491 81.05480116 144.41796875 83.00683594 C145.09279297 84.45364746 145.09279297 84.45364746 145.78125 85.9296875 C146.38549805 87.21335205 146.38549805 87.21335205 147.00195312 88.52294922 C148.00543903 91.01349911 148.5624337 93.35627169 149 96 C92.15470649 109.59716568 20.76355454 96.34460785 -29.38037109 66.58740234 C-31.26682734 65.41048878 -33.14088943 64.2195482 -35 63 C-34.32986605 59.6085822 -33.02453945 56.9887225 -31.33203125 53.984375 C-30.77515625 52.99187744 -30.21828125 51.99937988 -29.64453125 50.97680664 C-29.03996094 49.91196045 -28.43539063 48.84711426 -27.8125 47.75 C-27.19117188 46.64841553 -26.56984375 45.54683105 -25.9296875 44.41186523 C-17.48784365 29.49107608 -8.84917484 14.68285383 0 0 Z " fill="#AF202B" transform="translate(316,677)"/>
<path d="M0 0 C0.66 0 1.32 0 2 0 C2 1.32 2 2.64 2 4 C3.00377686 3.98952637 4.00755371 3.97905273 5.04174805 3.96826172 C8.77836518 3.93196547 12.51496683 3.9090646 16.25170898 3.89013672 C17.86664453 3.88010104 19.481562 3.86646949 21.09643555 3.84912109 C23.42240875 3.82476535 25.74814095 3.81349253 28.07421875 3.8046875 C28.79212082 3.79436493 29.51002289 3.78404236 30.24967957 3.77340698 C34.28499868 3.77251097 37.36821174 4.21042318 41 6 C28.30881864 29.0460316 7.58670197 49.9488058 -13 66 C-13.78375 66.67417969 -14.5675 67.34835937 -15.375 68.04296875 C-32.83692775 83.02202865 -69.09929517 111 -93 111 C-93.06993164 109.97084473 -93.13986328 108.94168945 -93.21191406 107.88134766 C-93.49235091 103.75552536 -93.77315379 99.62972804 -94.05404663 95.50393677 C-94.18467632 93.58473211 -94.31523053 91.66552231 -94.44570923 89.74630737 C-95.27097487 77.60980359 -96.10430593 65.47389928 -96.95051956 53.33883667 C-97.27269656 48.71631177 -97.5937712 44.09371005 -97.91516113 39.47113037 C-98.09658731 36.86728655 -98.27863394 34.26348588 -98.46130371 31.659729 C-98.71921816 27.98289269 -98.97504056 24.305916 -99.23046875 20.62890625 C-99.308452 19.52554428 -99.38643524 18.42218231 -99.46678162 17.28538513 C-99.53728226 16.2650972 -99.6077829 15.24480927 -99.68041992 14.19360352 C-99.74243088 13.30705582 -99.80444183 12.42050812 -99.86833191 11.50709534 C-99.9995909 9.00778973 -100 6.50274997 -100 4 C-76.57 4 -53.14 4 -29 4 C-29 4.66 -29 5.32 -29 6 C-14.69703161 5.72358546 -14.69703161 5.72358546 -1 2 C-0.67 1.34 -0.34 0.68 0 0 Z " fill="#241F21" transform="translate(609,648)"/>
<path d="M0 0 C1.26225998 3.53944522 1.38394623 7.34705419 1.75 11.0625 C2.64383052 19.64766437 3.85956503 28.18057029 5.10501099 36.72006226 C6.80577972 48.38254335 8.44992829 60.0422276 9.8125 71.75 C9.93616943 72.79542969 10.05983887 73.84085937 10.18725586 74.91796875 C10.75925298 79.98146715 11.1352145 84.9045483 11 90 C8.36 90 5.72 90 3 90 C3 109.14 3 128.28 3 148 C-0.36688955 144.63311045 -2.82908859 142.07666146 -5.42578125 138.2890625 C-6.05000977 137.38470459 -6.67423828 136.48034668 -7.31738281 135.54858398 C-7.97577148 134.58380127 -8.63416016 133.61901855 -9.3125 132.625 C-10.73029484 130.56628647 -12.14826906 128.50769647 -13.56640625 126.44921875 C-14.29359863 125.39009277 -15.02079102 124.3309668 -15.77001953 123.23974609 C-19.4068064 117.95617244 -23.08036587 112.69828613 -26.75 107.4375 C-28.058006 105.56169582 -29.36534197 103.68542417 -30.671875 101.80859375 C-31.2194043 101.02282959 -31.76693359 100.23706543 -32.33105469 99.42749023 C-34 97 -34 97 -35.60546875 93.89659119 C-37.77725504 90.6576266 -37.77725504 90.6576266 -41.59405518 90.24050903 C-43.05610588 90.20548054 -44.51916794 90.20329898 -45.98144531 90.22705078 C-46.7818222 90.21642105 -47.5821991 90.20579132 -48.40682983 90.19483948 C-51.04789995 90.16677192 -53.68697379 90.18085076 -56.328125 90.1953125 C-58.1608861 90.18406346 -59.99363278 90.1701833 -61.82635498 90.15377808 C-66.64666092 90.11770038 -71.46633314 90.11737152 -76.28674316 90.12445068 C-81.20690286 90.12536276 -86.12682398 90.09251692 -91.046875 90.0625 C-100.69798302 90.00860057 -110.34875812 89.99246041 -120 90 C-118.30092234 85.41486427 -115.89737947 82.13997756 -112.6875 78.5 C-112.1320752 77.86562012 -111.57665039 77.23124023 -111.00439453 76.57763672 C-105.65679261 70.57033063 -100.04201754 64.82986832 -94.375 59.125 C-93.51737061 58.25810547 -92.65974121 57.39121094 -91.77612305 56.49804688 C-85.82703903 50.57783916 -79.58115451 45.2038509 -73 40 C-72.33581055 39.46584473 -71.67162109 38.93168945 -70.98730469 38.38134766 C-60.45796675 29.97110367 -13.56650106 -6.78325053 0 0 Z " fill="#241F21" transform="translate(319,241)"/>
<path d="M0 0 C26.00217644 16.02583119 49.97754604 36.0226992 69 60 C69.65613281 60.78890625 70.31226563 61.5778125 70.98828125 62.390625 C78.9343923 72.00876342 85.59059571 82.54152513 92.0625 93.1875 C92.44462646 93.81100342 92.82675293 94.43450684 93.22045898 95.0769043 C94.96635017 97.9933953 96.4543727 100.61711075 97 104 C96.360625 103.360625 95.72125 102.72125 95.0625 102.0625 C94.60230469 101.60746094 94.14210938 101.15242188 93.66796875 100.68359375 C92.4416798 99.44581731 91.23921204 98.18432553 90.05078125 96.91015625 C81.69870427 88.1382262 72.16840817 82.54137079 61 78 C60.3090625 77.71382813 59.618125 77.42765625 58.90625 77.1328125 C33.80119398 67.76669544 4.16333585 69.68572448 -22.21842504 69.59528303 C-26.27158733 69.57936236 -30.32468049 69.55266923 -34.37779236 69.5272522 C-42.00907411 69.48096522 -49.64036964 69.44398346 -57.27171749 69.41057932 C-65.97834187 69.37199778 -74.68489596 69.32268567 -83.39146054 69.27259517 C-101.26092185 69.17002282 -119.13042639 69.0805263 -137 69 C-139.31205618 64.23825166 -141.60853201 59.46942371 -143.89086914 54.69335938 C-144.66950171 53.06957218 -145.4523579 51.44780329 -146.23950195 49.828125 C-147.37005503 47.49997028 -148.48523271 45.1649858 -149.59765625 42.828125 C-149.952798 42.10506165 -150.30793976 41.38199829 -150.67384338 40.63702393 C-152.41313459 36.94354143 -153.28210088 34.89552026 -152 31 C-132.15531297 30.70469216 -114.12449671 31.46509498 -95 37 C-92.28638898 37.7028812 -89.57196598 38.40211251 -86.85546875 39.09375 C-82.47254842 40.48477259 -78.25191798 42.25419475 -74 44 C-73.15912842 44.34289062 -72.31825684 44.68578125 -71.4519043 45.0390625 C-61.10632576 49.28790765 -51.15398463 53.70024686 -41.6171875 59.56640625 C-39.05882837 61.24020526 -39.05882837 61.24020526 -36 61 C-34.25741872 58.85951136 -34.25741872 58.85951136 -32.62890625 56.015625 C-31.97784912 54.94449463 -31.32679199 53.87336426 -30.65600586 52.76977539 C-29.95795546 51.5966449 -29.26012498 50.42338353 -28.5625 49.25 C-27.84414874 48.05988043 -27.12482175 46.87034929 -26.40454102 45.68139648 C-24.5954695 42.68935639 -22.7990474 39.68996619 -21.00744629 36.68743896 C-19.51719443 34.19131676 -18.02011617 31.69930373 -16.5234375 29.20703125 C-15.00293318 26.6741096 -13.48392058 24.14040369 -11.97167969 21.60253906 C-8.83670839 16.34845824 -5.60327667 11.18398645 -2.20703125 6.09375 C-1.02383892 4.04135165 -0.4370091 2.31667477 0 0 Z " fill="#252021" transform="translate(566,262)"/>
<path d="M0 0 C0.33 0 0.66 0 1 0 C1 3.96 1 7.92 1 12 C6.94 12 12.88 12 19 12 C19 40.71 19 69.42 19 99 C13.06 99 7.12 99 1 99 C1 108.9 1 118.8 1 129 C-4.94 131.475 -4.94 131.475 -11 134 C-14.78929406 135.89421224 -14.78929406 135.89421224 -18.56640625 137.8125 C-21.83211839 139.40604172 -25.18093868 140.72005262 -28.56640625 142.03515625 C-30.90920107 142.96400106 -33.20344991 143.96271815 -35.5 145 C-39.40078284 146.75569385 -43.34828559 148.35682399 -47.32421875 149.93359375 C-56.77185373 153.65222627 -56.77185373 153.65222627 -65.9375 158 C-69.14701041 159.6563374 -72.41684706 160.95989182 -75.796875 162.23046875 C-83.36344469 165.11473686 -90.8376923 168.20058144 -98.3125 171.3125 C-99.6503266 171.86799276 -100.98821694 172.42333203 -102.32617188 172.97851562 C-105.55151425 174.31725086 -108.77600207 175.65802969 -112 177 C-108.72871029 176.885642 -105.45815144 176.7562636 -102.1875 176.625 C-100.85235352 176.57859375 -100.85235352 176.57859375 -99.49023438 176.53125 C-93.45901371 176.28081869 -87.49580041 175.75757577 -81.5 175.08984375 C-68.63360534 173.6687966 -55.72390851 172.83453892 -42.8125 171.9375 C-40.33656846 171.76265387 -37.86065687 171.58752512 -35.38476562 171.41210938 C-23.25904885 170.55714859 -11.13264042 169.75829003 1 169 C1 180.22 1 191.44 1 203 C3.31 203 5.62 203 8 203 C8 208.28 8 213.56 8 219 C6.02 219 4.04 219 2 219 C0.60241596 215.34164089 -0.78459237 211.67945204 -2.16259766 208.01367188 C-2.85955708 206.16594121 -3.56445655 204.32121171 -4.26953125 202.4765625 C-4.93662109 200.69765625 -4.93662109 200.69765625 -5.6171875 198.8828125 C-6.22989502 197.26463623 -6.22989502 197.26463623 -6.85498047 195.61376953 C-7.79696541 192.64079276 -8.47818942 189.82534678 -9.07156372 186.7741394 C-9.24685671 185.87862303 -9.4221497 184.98310665 -9.60275459 184.06045341 C-9.73384558 183.38050379 -9.86493656 182.70055416 -10 182 C-10.70145236 182.05761285 -11.40290472 182.1152257 -12.12561321 182.17458439 C-29.19265672 183.57587977 -46.260312 184.96946774 -63.32868481 186.35447788 C-71.58279998 187.02444372 -79.83668714 187.69701751 -88.09008789 188.37573242 C-95.28365366 188.96728559 -102.47759895 189.55394413 -109.67204267 190.13472599 C-113.48150283 190.44242223 -117.29072779 190.75256756 -121.09950829 191.06857491 C-124.68502339 191.36598052 -128.27101012 191.65683471 -131.85746384 191.9426918 C-133.79992597 192.09922484 -135.7418262 192.26268242 -137.68370056 192.42634583 C-138.84331299 192.51752686 -140.00292542 192.60870789 -141.19767761 192.70265198 C-142.20335376 192.78469155 -143.2090299 192.86673113 -144.24518108 192.95125675 C-147.80611394 193.01426323 -150.79433572 192.72339857 -153.875 190.875 C-155 189 -155 189 -155.0625 185.5625 C-153.75802971 181.18868784 -151.81019961 180.07781447 -148 178 C-145.09419786 176.59767239 -142.13412643 175.3522212 -139.15234375 174.12109375 C-138.28409973 173.75657104 -137.41585571 173.39204834 -136.52130127 173.01647949 C-133.66242185 171.81769026 -130.79998638 170.62764758 -127.9375 169.4375 C-125.92916931 168.59709015 -123.92111694 167.7560149 -121.91333008 166.91430664 C-117.72517304 165.15909358 -113.53581925 163.40678072 -109.34570312 161.65625 C-100.2406555 157.84905243 -91.15330868 154.00003393 -82.06445312 150.15438843 C-66.89766479 143.73916774 -51.72691851 137.33313919 -36.50732422 131.04394531 C-34.59923153 130.24949504 -32.69534974 129.44492267 -30.79345703 128.63574219 C-29.70790527 128.17586914 -28.62235352 127.71599609 -27.50390625 127.2421875 C-26.50302979 126.81534668 -25.50215332 126.38850586 -24.47094727 125.94873047 C-22 125 -22 125 -20 125 C-20.0721875 124.28457031 -20.144375 123.56914063 -20.21875 122.83203125 C-20.3115625 121.83558594 -20.404375 120.83914063 -20.5 119.8125 C-20.5928125 118.84957031 -20.685625 117.88664062 -20.78125 116.89453125 C-22.90928142 79.00797187 -17.1448418 34.2896836 0 0 Z " fill="#CDCCCC" transform="translate(163,392)"/>
<path d="M0 0 C9.36616195 -0.64086764 18.68485474 -1.12824162 28.07421875 -0.9296875 C29.25175468 -0.93819984 29.25175468 -0.93819984 30.45307922 -0.94688416 C35.95255888 -0.75348025 38.75541396 0.84499244 42.68489075 4.66143799 C44.70179798 7.14885504 45.82052417 9.77617385 47 12.73144531 C48.84126819 16.90846289 51.56579022 20.54959752 54.125 24.3125 C58.64825473 31.29650947 58.64825473 31.29650947 60 34 C60.33 28.39 60.66 22.78 61 17 C59.02 17 57.04 17 55 17 C55 11.39 55 5.78 55 0 C65.23 0 75.46 0 86 0 C86 5.61 86 11.22 86 17 C84.02 17 82.04 17 80 17 C80 35.81 80 54.62 80 74 C70.76 74 61.52 74 52 74 C45.46975927 67.05293539 45.46975927 67.05293539 44.1640625 63.65625 C41.69896384 57.99365049 38.11032829 53.23082374 34.5 48.25 C33.2993303 46.54881472 32.10122735 44.84581362 30.90625 43.140625 C30.39384766 42.41391602 29.88144531 41.68720703 29.35351562 40.93847656 C28.21435759 39.30699842 27.1037561 37.65563415 26 36 C25.67 42.93 25.34 49.86 25 57 C26.98 57 28.96 57 31 57 C31 62.61 31 68.22 31 74 C20.44 74 9.88 74 -1 74 C-1 68.39 -1 62.78 -1 57 C1.31 57 3.62 57 6 57 C6 43.47 6 29.94 6 16 C4.02 16 2.04 16 0 16 C0 10.72 0 5.44 0 0 Z " fill="#252022" transform="translate(384,567)"/>
<path d="M0 0 C1.5625 2.4375 1.5625 2.4375 1.67578125 5.6640625 C0.0709109 11.10372831 -3.18844768 13.04157026 -7.6875 16.25 C-8.50798828 16.86037109 -9.32847656 17.47074219 -10.17382812 18.09960938 C-11.82699086 19.32881795 -13.4857971 20.55047603 -15.15039062 21.76416016 C-18.12112148 23.93766456 -21.02891998 26.18148601 -23.9375 28.4375 C-25.47664063 29.61892578 -25.47664063 29.61892578 -27.046875 30.82421875 C-31.10788155 33.94797619 -35.14622865 37.10078472 -39.1875 40.25 C-47.19892551 46.48993612 -55.25384095 52.67096751 -63.32861328 58.82861328 C-66.86736881 61.52835847 -70.40222723 64.23319689 -73.9375 66.9375 C-75.35414819 68.0208575 -76.77081485 69.10419084 -78.1875 70.1875 C-78.88875 70.72375 -79.59 71.26 -80.3125 71.8125 C-82.4375 73.4375 -84.5625 75.0625 -86.6875 76.6875 C-87.7405835 77.4928418 -87.7405835 77.4928418 -88.81494141 78.31445312 C-90.22335906 79.39142121 -91.63188667 80.46824551 -93.04052734 81.54492188 C-96.70934575 84.34943908 -100.37588707 87.15686502 -104.0390625 89.96875 C-104.79638672 90.54947266 -105.55371094 91.13019531 -106.33398438 91.72851562 C-107.77090008 92.83044485 -109.2071491 93.93324423 -110.64257812 95.03710938 C-122.90762044 104.4375 -122.90762044 104.4375 -125.4375 104.4375 C-125.1075 105.4275 -124.7775 106.4175 -124.4375 107.4375 C-124.13209331 110.52974276 -123.92917689 113.62261719 -123.71875 116.72265625 C-123.60253263 119.40132316 -123.60253263 119.40132316 -122.4375 121.4375 C-122.33886829 123.88338021 -122.29763546 126.30010672 -122.3046875 128.74609375 C-122.30373077 129.46861832 -122.30277405 130.19114288 -122.30178833 130.93556213 C-122.30110748 132.46461067 -122.30295514 133.99366209 -122.30712891 135.52270508 C-122.31247079 137.86220817 -122.30718476 140.20151859 -122.30078125 142.54101562 C-122.3014422 144.02604209 -122.30272371 145.51106844 -122.3046875 146.99609375 C-122.30266327 147.6961705 -122.30063904 148.39624725 -122.29855347 149.11753845 C-122.31326459 152.16976783 -122.46414975 154.51744925 -123.4375 157.4375 C-123.67450185 159.1925227 -123.8738964 160.95274662 -124.05078125 162.71484375 C-124.16252686 163.77719238 -124.27427246 164.83954102 -124.3894043 165.93408203 C-124.56789917 167.63733643 -124.56789917 167.63733643 -124.75 169.375 C-126.00630981 180.89451806 -127.92355129 192.13111136 -130.4375 203.4375 C-130.7675 203.4375 -131.0975 203.4375 -131.4375 203.4375 C-132.65518365 195.85331116 -132.56486466 188.32038938 -132.53515625 180.65625 C-132.53328803 179.23278859 -132.53186603 177.80932654 -132.53086853 176.38586426 C-132.52707518 172.66396263 -132.51727257 168.94210087 -132.50616455 165.22021484 C-132.49588152 161.41244038 -132.49135623 157.60465939 -132.48632812 153.796875 C-132.47564702 146.34373195 -132.45860946 138.89062159 -132.4375 131.4375 C-133.04779556 131.46761169 -133.65809113 131.49772339 -134.28688049 131.52874756 C-137.06720576 131.64868775 -139.84698686 131.72318177 -142.62890625 131.796875 C-143.58913696 131.84505371 -144.54936768 131.89323242 -145.53869629 131.94287109 C-152.50504611 132.08144497 -152.50504611 132.08144497 -155.16331482 130.2456665 C-157.99602144 127.03604094 -159.610366 123.61101273 -160.4375 119.4375 C-159.43467111 115.1953746 -155.70013897 113.00472144 -152.375 110.5 C-151.75794189 110.02546387 -151.14088379 109.55092773 -150.50512695 109.06201172 C-148.48795155 107.51335618 -146.46277401 105.97554386 -144.4375 104.4375 C-143.06711005 103.38749912 -141.69732187 102.33671242 -140.328125 101.28515625 C-136.0380861 97.99361764 -131.73832838 94.714921 -127.4375 91.4375 C-116.43470262 83.04995566 -105.47781619 74.60680648 -94.56835938 66.09814453 C-92.31812186 64.34446493 -90.06537546 62.59403907 -87.8125 60.84375 C-84.71028025 58.43158042 -81.61748092 56.00817262 -78.53369141 53.57250977 C-66.47266583 44.05171548 -54.23657635 34.76238109 -41.93017578 25.56176758 C-37.0532016 21.91174782 -32.22576961 18.20327454 -27.4375 14.4375 C-44.00925103 15.84410151 -60.38072668 18.27689848 -76.8125 20.8125 C-81.90309753 21.59476923 -86.9942394 22.37336419 -92.0859375 23.1484375 C-93.33477722 23.33895691 -94.58361694 23.52947632 -95.87030029 23.72576904 C-106.58416199 25.34397183 -117.31725255 26.78884029 -128.06478882 28.16268921 C-129.25077667 28.31605743 -130.43676453 28.46942566 -131.65869141 28.62744141 C-132.70489655 28.76034576 -133.75110168 28.89325012 -134.82901001 29.03018188 C-137.54079947 29.37966791 -137.54079947 29.37966791 -140.4375 30.4375 C-141.83189664 30.50415376 -143.22919875 30.52288199 -144.625 30.5 C-145.883125 30.479375 -147.14125 30.45875 -148.4375 30.4375 C-148.72625 29.2 -149.015 27.9625 -149.3125 26.6875 C-149.90256031 24.2763183 -150.46095753 22.39305415 -151.625 20.1875 C-152.67900171 17.91734248 -152.26091154 16.74305232 -151.4375 14.4375 C-150.4475 15.7575 -149.4575 17.0775 -148.4375 18.4375 C-147.72150824 18.33442535 -147.00551647 18.23135071 -146.26782799 18.12515259 C-128.84163476 15.61676237 -111.41477872 13.11302976 -93.98717308 10.61447144 C-85.55931524 9.40607313 -77.13168871 8.19610277 -68.70458984 6.98242188 C-61.35905864 5.92451373 -54.01310954 4.86956492 -46.66664469 3.8181591 C-42.77721766 3.26140981 -38.88801512 2.70318666 -34.99930954 2.14141846 C-31.33750469 1.6124764 -27.67515303 1.08749969 -24.01234818 0.56552887 C-22.03069359 0.28208792 -20.0496375 -0.00552753 -18.06860352 -0.29327393 C-16.28925919 -0.54569855 -16.28925919 -0.54569855 -14.47396851 -0.80322266 C-13.44709112 -0.95070953 -12.42021374 -1.09819641 -11.36221886 -1.25015259 C-3.29435469 -2.11176583 -3.29435469 -2.11176583 0 0 Z " fill="#CCCCCC" transform="translate(820.4375,360.5625)"/>
<path d="M0 0 C23.1 0 46.2 0 70 0 C70 7.92 70 15.84 70 24 C63.73 24 57.46 24 51 24 C51 21.69 51 19.38 51 17 C46.38 17 41.76 17 37 17 C37 20.96 37 24.92 37 29 C41.29 29 45.58 29 50 29 C50 33.95 50 38.9 50 44 C45.71 44 41.42 44 37 44 C37 47.96 37 51.92 37 56 C42.28 56 47.56 56 53 56 C53 54.02 53 52.04 53 50 C59.27 50 65.54 50 72 50 C72 57.92 72 65.84 72 74 C48.24 74 24.48 74 0 74 C0 68.06 0 62.12 0 56 C1.98 56 3.96 56 6 56 C6 43.13 6 30.26 6 17 C4.02 17 2.04 17 0 17 C0 11.39 0 5.78 0 0 Z " fill="#252022" transform="translate(476,567)"/>
<path d="M0 0 C24.42 0 48.84 0 74 0 C74 8.25 74 16.5 74 25 C67.73 25 61.46 25 55 25 C55 22.03 55 19.06 55 16 C49.39 16 43.78 16 38 16 C38 20.29 38 24.58 38 29 C42.95 29 47.9 29 53 29 C53 33.62 53 38.24 53 43 C48.38 43 43.76 43 39 43 C39 46.96 39 50.92 39 55 C41.64 55 44.28 55 47 55 C47 60.61 47 66.22 47 72 C31.49 72 15.98 72 0 72 C0 66.72 0 61.44 0 56 C2.31 56 4.62 56 7 56 C7 42.8 7 29.6 7 16 C4.69 16 2.38 16 0 16 C0 10.72 0 5.44 0 0 Z " fill="#262123" transform="translate(175,567)"/>
<path d="M0 0 C0.33 0 0.66 0 1 0 C1 3.96 1 7.92 1 12 C6.94 12 12.88 12 19 12 C19 40.71 19 69.42 19 99 C13.06 99 7.12 99 1 99 C1 104.94 1 110.88 1 117 C-2.12321008 118.3376655 -5.24840189 119.67029736 -8.375 121 C-9.26445312 121.3815625 -10.15390625 121.763125 -11.0703125 122.15625 C-11.92109375 122.5171875 -12.771875 122.878125 -13.6484375 123.25 C-14.82672119 123.75273438 -14.82672119 123.75273438 -16.02880859 124.265625 C-18 125 -18 125 -20 125 C-20.17439753 123.27159593 -20.33889015 121.54219325 -20.5 119.8125 C-20.5928125 118.84957031 -20.685625 117.88664062 -20.78125 116.89453125 C-22.90928142 79.00797187 -17.1448418 34.2896836 0 0 Z " fill="#AE212B" transform="translate(163,392)"/>
<path d="M0 0 C0 -0.66 0 -1.32 0 -2 C4.95 -2 9.9 -2 15 -2 C15 4.93 15 11.86 15 19 C10.05 19 5.1 19 0 19 C-0.9765625 17.20963542 -1.953125 15.41927083 -2.9296875 13.62890625 C-3.91410024 11.83381685 -3.91410024 11.83381685 -6 11 C-9 10.75 -9 10.75 -12 11 C-14.19920496 12.82100147 -14.19920496 12.82100147 -14.4375 15.375 C-14.24587343 18.13536771 -14.24587343 18.13536771 -12.05859375 19.8671875 C-7.37968701 23.12987343 -2.26973328 25.49375169 2.875 27.9375 C9.73112783 31.37644666 14.45618172 35.7971698 18.4375 42.375 C19.93239821 49.35119165 19.84242473 56.80585712 16 63 C10.57794438 69.20731885 4.8222163 72.60327073 -3.37109375 73.27734375 C-11.82092299 73.50088421 -16.97440683 72.68372878 -24 68 C-24 69.32 -24 70.64 -24 72 C-29.28 72 -34.56 72 -40 72 C-40 63.75 -40 55.5 -40 47 C-25.18157163 46.03619978 -25.18157163 46.03619978 -21.859375 48.74609375 C-20.64282668 50.80176726 -19.76804704 52.74356366 -19 55 C-18.02089415 56.19695276 -18.02089415 56.19695276 -16.1875 56.1328125 C-15.465625 56.13023437 -14.74375 56.12765625 -14 56.125 C-13.278125 56.12757813 -12.55625 56.13015625 -11.8125 56.1328125 C-9.97910585 56.19695276 -9.97910585 56.19695276 -9 55 C-8.24657483 52.67484501 -8.24657483 52.67484501 -9 50 C-10.50844581 48.72835598 -10.50844581 48.72835598 -12.4609375 47.62890625 C-13.18756592 47.19562012 -13.91419434 46.76233398 -14.6628418 46.31591797 C-16.93624382 45.0358974 -19.22809366 43.80867786 -21.54296875 42.60546875 C-22.30673828 42.20650391 -23.07050781 41.80753906 -23.85742188 41.39648438 C-25.41531281 40.58815706 -26.98058487 39.79390462 -28.55273438 39.01367188 C-35.20229642 35.48867079 -38.62253271 31.13240186 -41 24 C-41.12040604 21.87749355 -41.17533819 19.75088413 -41.1875 17.625 C-41.20167969 16.50351562 -41.21585938 15.38203125 -41.23046875 14.2265625 C-40.81809316 8.45330425 -39.01677087 5.5742362 -34.6875 1.8125 C-33.92824219 1.13832031 -33.16898438 0.46414063 -32.38671875 -0.23046875 C-22.5215591 -7.54457239 -10.58050713 -3.82263483 0 0 Z " fill="#282325" transform="translate(662,569)"/>
<path d="M0 0 C0 -0.66 0 -1.32 0 -2 C4.95 -2 9.9 -2 15 -2 C15 4.93 15 11.86 15 19 C10.05 19 5.1 19 0 19 C-0.99 17.02 -1.98 15.04 -3 13 C-6.45245824 10.69836118 -7.94738713 10.65509678 -12 11 C-14.15931527 12.8272323 -14.15931527 12.8272323 -14.625 15.3125 C-14.22632473 18.33283327 -14.22632473 18.33283327 -11 20.25 C-9.34430764 21.18634308 -7.67505803 22.09875854 -6 23 C-3.9830896 24.11570403 -1.97022722 25.23836888 0.04101562 26.36425781 C1.44881711 27.15014153 2.86018543 27.92967675 4.27539062 28.70214844 C10.39688683 32.08289731 15.96483 35.48000518 19 42 C20.01518636 50.26505261 19.82274425 58.92037264 15 66 C12.52804169 68.1829611 10.00192751 69.65835642 7 71 C5.84564453 71.54720703 5.84564453 71.54720703 4.66796875 72.10546875 C-3.57666037 74.86977339 -13.19037712 73.52162901 -21 70 C-21.66 69.67 -22.32 69.34 -23 69 C-23 69.99 -23 70.98 -23 72 C-28.28 72 -33.56 72 -39 72 C-39 63.75 -39 55.5 -39 47 C-33.72 47 -28.44 47 -23 47 C-22.01 49.31 -21.02 51.62 -20 54 C-16.91111478 56.05925681 -16.29064073 56.2390374 -12.8125 56.125 C-11.554375 56.08375 -10.29625 56.0425 -9 56 C-8.58190799 53.16848027 -8.58190799 53.16848027 -9 50 C-13.48235088 45.66706082 -19.1571599 43.20410251 -24.67382812 40.44335938 C-31.33785762 37.02545269 -37.14298797 33.42891931 -40.30078125 26.3671875 C-42.21812536 19.87606723 -42.03261019 13.24053937 -39.0625 7.125 C-29.75149829 -7.5484984 -14.1528587 -5.04012774 0 0 Z " fill="#262123" transform="translate(595,569)"/>
<path d="M0 0 C24.42 0 48.84 0 74 0 C74 10.56 74 21.12 74 32 C69.05 32 64.1 32 59 32 C59 27.05 59 22.1 59 17 C56.03 17 53.06 17 50 17 C50 29.54 50 42.08 50 55 C51.98 55 53.96 55 56 55 C56 60.61 56 66.22 56 72 C43.46 72 30.92 72 18 72 C18 66.39 18 60.78 18 55 C19.98 55 21.96 55 24 55 C24 42.46 24 29.92 24 17 C21.03 17 18.06 17 15 17 C15 21.95 15 26.9 15 32 C10.05 32 5.1 32 0 32 C0 21.44 0 10.88 0 0 Z " fill="#272224" transform="translate(305,567)"/>
<path d="M0 0 C13.2 0 26.4 0 40 0 C40 5.28 40 10.56 40 16 C38.02 16 36.04 16 34 16 C34 28.87 34 41.74 34 55 C35.98 55 37.96 55 40 55 C40 60.61 40 66.22 40 72 C26.47 72 12.94 72 -1 72 C-1 66.72 -1 61.44 -1 56 C1.31 56 3.62 56 6 56 C6 42.8 6 29.6 6 16 C4.02 16 2.04 16 0 16 C0 10.72 0 5.44 0 0 Z " fill="#241F21" transform="translate(259,567)"/>
<path d="M0 0 C37.24188447 -0.41611044 37.24188447 -0.41611044 45 7 C48.73904333 11.57514425 49.63035647 15.22086303 49.5 21 C49.51546875 21.68578125 49.5309375 22.3715625 49.546875 23.078125 C49.5079517 28.17707752 48.2255176 31.10633947 45 35 C42.77015444 36.74084434 40.56534922 37.71732539 38 39 C37.42926758 39.36206543 36.85853516 39.72413086 36.27050781 40.09716797 C32.94829344 41.41819471 29.69092535 41.24576626 26.171875 41.1953125 C25.50752441 41.19329834 24.84317383 41.19128418 24.15869141 41.18920898 C21.68905686 41.17878502 19.21952113 41.15086245 16.75 41.125 C11.2225 41.08375 5.695 41.0425 0 41 C0 27.47 0 13.94 0 0 Z " fill="#F8F8F8" transform="translate(528,388)"/>
<path d="M0 0 C0.33 0 0.66 0 1 0 C1 5.28 1 10.56 1 16 C3.31 16 5.62 16 8 16 C8.33 29.2 8.66 42.4 9 56 C17.91 56 26.82 56 36 56 C36 52.04 36 48.08 36 44 C36.33 44 36.66 44 37 44 C37 47.96 37 51.92 37 56 C42.28 56 47.56 56 53 56 C53 54.02 53 52.04 53 50 C59.27 50 65.54 50 72 50 C72 57.92 72 65.84 72 74 C48.24 74 24.48 74 0 74 C0 68.06 0 62.12 0 56 C1.98 56 3.96 56 6 56 C6 43.13 6 30.26 6 17 C4.02 17 2.04 17 0 17 C0 11.39 0 5.78 0 0 Z " fill="#353133" transform="translate(476,567)"/>
<path d="M0 0 C1.73277085 3.46554171 1.46133876 7.42560444 1.71875 11.25 C1.83187492 13.95865993 1.83187492 13.95865993 3 16 C3.09863171 18.44588021 3.13986454 20.86260672 3.1328125 23.30859375 C3.13376923 24.03111832 3.13472595 24.75364288 3.13571167 25.49806213 C3.13639252 27.02711067 3.13454486 28.55616209 3.13037109 30.08520508 C3.12502921 32.42470817 3.13031524 34.76401859 3.13671875 37.10351562 C3.1360578 38.58854209 3.13477629 40.07356844 3.1328125 41.55859375 C3.13483673 42.2586705 3.13686096 42.95874725 3.13894653 43.68003845 C3.12423541 46.73226783 2.97335025 49.07994925 2 52 C1.76299815 53.7550227 1.5636036 55.51524662 1.38671875 57.27734375 C1.27497314 58.33969238 1.16322754 59.40204102 1.0480957 60.49658203 C0.92909912 61.63208496 0.81010254 62.76758789 0.6875 63.9375 C-0.56880981 75.45701806 -2.48605129 86.69361136 -5 98 C-5.33 98 -5.66 98 -6 98 C-7.21768365 90.41581116 -7.12736466 82.88288938 -7.09765625 75.21875 C-7.09578803 73.79528859 -7.09436603 72.37182654 -7.09336853 70.94836426 C-7.08957518 67.22646263 -7.07977257 63.50460087 -7.06866455 59.78271484 C-7.05838152 55.97494038 -7.05385623 52.16715939 -7.04882812 48.359375 C-7.03814702 40.90622984 -7.0205765 33.45312562 -7 26 C-13.93 26 -20.86 26 -28 26 C-28.33 24.35 -28.66 22.7 -29 21 C-22.60860671 15.63772936 -16.08937087 10.47142936 -9.4375 5.4375 C-8.73496094 4.90092773 -8.03242187 4.36435547 -7.30859375 3.81152344 C-6.64859375 3.31555664 -5.98859375 2.81958984 -5.30859375 2.30859375 C-4.71876709 1.86314209 -4.12894043 1.41769043 -3.52124023 0.95874023 C-2 0 -2 0 0 0 Z " fill="#221E20" transform="translate(695,466)"/>
<path d="M0 0 C5.28 0 10.56 0 16 0 C16.99 2.31 17.98 4.62 19 7 C22.08888522 9.05925681 22.70935927 9.2390374 26.1875 9.125 C27.445625 9.08375 28.70375 9.0425 30 9 C30.33 7.35 30.66 5.7 31 4 C32.125 5.75 32.125 5.75 33 8 C32.0546875 10.140625 32.0546875 10.140625 31 12 C33.31243792 12.02685412 35.6249627 12.04632841 37.9375 12.0625 C39.86916016 12.07990234 39.86916016 12.07990234 41.83984375 12.09765625 C44.86298403 12.36532549 44.86298403 12.36532549 46 11 C47.85287502 10.92773498 49.70833878 10.9161878 51.5625 10.9375 C52.57441406 10.94652344 53.58632813 10.95554687 54.62890625 10.96484375 C55.41136719 10.97644531 56.19382812 10.98804688 57 11 C56.690625 11.763125 56.38125 12.52625 56.0625 13.3125 C55.32106407 15.18789677 54.63771783 17.08684652 54 19 C52.328125 20.31640625 52.328125 20.31640625 50.25 21.5625 C49.57453125 21.97628906 48.8990625 22.39007812 48.203125 22.81640625 C40.64245789 26.87825401 32.53338284 27.2465313 24.15625 25.359375 C21.31935232 24.41988291 18.67082309 23.33541154 16 22 C16 22.99 16 23.98 16 25 C10.72 25 5.44 25 0 25 C0 16.75 0 8.5 0 0 Z " fill="#484446" transform="translate(556,616)"/>
<path d="M0 0 C14.81842837 -0.96380022 14.81842837 -0.96380022 18.140625 1.74609375 C19.35717332 3.80176726 20.23195296 5.74356366 21 8 C22.96822886 9.96822886 26.34808709 9.66248381 29 10 C29 10.33 29 10.66 29 11 C27.35 11 25.7 11 24 11 C24 11.66 24 12.32 24 13 C28.90356752 13.69440499 33.14834179 14.27675216 38 13 C39.670625 12.7834375 39.670625 12.7834375 41.375 12.5625 C45.02637293 12.07973343 45.02637293 12.07973343 48.5625 10.9375 C51.89189539 10.02948308 54.57211192 9.83278595 58 10 C56.76379354 16.33555812 53.06055943 19.42146155 48 23 C41.36585736 27.06055282 33.5230684 26.6790418 26 26 C22.17462656 25.00870721 19.28895848 23.19263899 16 21 C16 22.32 16 23.64 16 25 C10.72 25 5.44 25 0 25 C0 16.75 0 8.5 0 0 Z " fill="#545152" transform="translate(622,616)"/>
<path d="M0 0 C0.33 0 0.66 0 1 0 C1 5.28 1 10.56 1 16 C2.98 16 4.96 16 7 16 C7 29.53 7 43.06 7 57 C5.02 57 3.04 57 1 57 C1 59.64 1 62.28 1 65 C15.85 65 30.7 65 46 65 C46 65.66 46 66.32 46 67 C53.92 67 61.84 67 70 67 C70.33 63.37 70.66 59.74 71 56 C71.33 56 71.66 56 72 56 C72 61.94 72 67.88 72 74 C48.24 74 24.48 74 0 74 C0 68.06 0 62.12 0 56 C1.98 56 3.96 56 6 56 C6 43.13 6 30.26 6 17 C4.02 17 2.04 17 0 17 C0 11.39 0 5.78 0 0 Z " fill="#6D6B6B" transform="translate(476,567)"/>
<path d="M0 0 C0.33 0 0.66 0 1 0 C1 12.87 1 25.74 1 39 C2.98 39 4.96 39 7 39 C7 44.61 7 50.22 7 56 C-6.53 56 -20.06 56 -34 56 C-34 50.72 -34 45.44 -34 40 C-33.34 40.66 -32.68 41.32 -32 42 C-29.25514407 42.14507695 -26.61519457 42.18652423 -23.875 42.125 C-23.12089844 42.11597656 -22.36679687 42.10695313 -21.58984375 42.09765625 C-19.72642746 42.0740687 -17.86317407 42.03819719 -16 42 C-15.67 41.34 -15.34 40.68 -15 40 C-10.05 40 -5.1 40 0 40 C0 26.8 0 13.6 0 0 Z " fill="#383536" transform="translate(292,583)"/>
<path d="M0 0 C0.33 0 0.66 0 1 0 C1.33 12.87 1.66 25.74 2 39 C6.95 39 11.9 39 17 39 C17.33 30.75 17.66 22.5 18 14 C20.27492349 17.41238523 20.19555565 18.36044265 19.9765625 22.32421875 C19.925 23.35224609 19.8734375 24.38027344 19.8203125 25.43945312 C19.75585938 26.51130859 19.69140625 27.58316406 19.625 28.6875 C19.56828125 29.77095703 19.5115625 30.85441406 19.453125 31.97070312 C19.31160446 34.64780007 19.16018849 37.32396576 19 40 C20.98 40 22.96 40 25 40 C25 45.61 25 51.22 25 57 C14.44 57 3.88 57 -7 57 C-7 51.39 -7 45.78 -7 40 C-4.69 40 -2.38 40 0 40 C0 26.8 0 13.6 0 0 Z " fill="#403C3D" transform="translate(390,584)"/>
<path d="M0 0 C1.98 0 3.96 0 6 0 C6 0.33 6 0.66 6 1 C4.35 1 2.7 1 1 1 C1.33 2.32 1.66 3.64 2 5 C13.55 5 25.1 5 37 5 C37 3.68 37 2.36 37 1 C35.35 1 33.7 1 32 1 C32 0.67 32 0.34 32 0 C33.98 0 35.96 0 38 0 C38 5.61 38 11.22 38 17 C25.46 17 12.92 17 0 17 C0 11.39 0 5.78 0 0 Z " fill="#494647" transform="translate(323,622)"/>
<path d="M0 0 C0.33 0 0.66 0 1 0 C1 3.96 1 7.92 1 12 C3.64 12 6.28 12 9 12 C9 17.61 9 23.22 9 29 C-6.51 29 -22.02 29 -38 29 C-38 23.72 -38 18.44 -38 13 C-37.67 13 -37.34 13 -37 13 C-37 15.64 -37 18.28 -37 21 C-27.76 20.67 -18.52 20.34 -9 20 C-9.33 19.34 -9.66 18.68 -10 18 C-7.93757383 17.97282308 -5.87504297 17.9535242 -3.8125 17.9375 C-2.66394531 17.92589844 -1.51539063 17.91429687 -0.33203125 17.90234375 C2.59300586 17.98807168 5.16316291 18.32150977 8 19 C8 17.02 8 15.04 8 13 C5.36 13 2.72 13 0 13 C0 8.71 0 4.42 0 0 Z " fill="#615E5F" transform="translate(213,610)"/>
<path d="M0 0 C2.31 0 4.62 0 7 0 C7 0.33 7 0.66 7 1 C5.02 1 3.04 1 1 1 C1 19.81 1 38.62 1 58 C-8.24 58 -17.48 58 -27 58 C-34 47 -34 47 -34 46 C-23.11 46 -12.22 46 -1 46 C-0.67 30.82 -0.34 15.64 0 0 Z " fill="#504D4E" transform="translate(463,583)"/>
<path d="M0 0 C0.33 0 0.66 0 1 0 C1 13.2 1 26.4 1 40 C13.54 40 26.08 40 39 40 C39 41.98 39 43.96 39 46 C33.39 46 27.78 46 22 46 C27.28 46.33 32.56 46.66 38 47 C38 47.33 38 47.66 38 48 C23.48 48 8.96 48 -6 48 C-6 45.36 -6 42.72 -6 40 C-4.02 40 -2.04 40 0 40 C0 26.8 0 13.6 0 0 Z " fill="#383536" transform="translate(182,583)"/>
<path d="M0 0 C3.63 0 7.26 0 11 0 C11 7.59 11 15.18 11 23 C13.31 23 15.62 23 18 23 C18 28.28 18 33.56 18 39 C16.02 39 14.04 39 12 39 C10.60903095 35.28423502 9.22163849 31.56715557 7.83740234 27.84887695 C7.13693662 25.96952597 6.43372621 24.09119872 5.73046875 22.21289062 C5.06337891 20.41948242 5.06337891 20.41948242 4.3828125 18.58984375 C3.97434082 17.49534912 3.56586914 16.40085449 3.14501953 15.27319336 C1.28466219 9.95511002 0 5.67934332 0 0 Z " fill="#292527" transform="translate(153,572)"/>
<path d="M0 0 C0.33 0 0.66 0 1 0 C1 5.94 1 11.88 1 18 C-22.76 18 -46.52 18 -71 18 C-71 15.36 -71 12.72 -71 10 C-70.67 10.99 -70.34 11.98 -70 13 C-65.87484996 12.68946109 -61.74991025 12.37620677 -57.625 12.0625 C-56.46871094 11.97548828 -55.31242187 11.88847656 -54.12109375 11.79882812 C-47.40368511 11.2864834 -40.69938434 10.71129502 -34 10 C-33.505 11.485 -33.505 11.485 -33 13 C-33.33 13.33 -33.66 13.66 -34 14 C-17.665 14.495 -17.665 14.495 -1 15 C-0.67 10.05 -0.34 5.1 0 0 Z " fill="#828081" transform="translate(547,623)"/>
<path d="M0 0 C5.28 0 10.56 0 16 0 C16 0.33 16 0.66 16 1 C11.05 1 6.1 1 1 1 C1 7.27 1 13.54 1 20 C2.98 19.855625 4.96 19.71125 7 19.5625 C12.99975554 19.15590721 19.00112519 18.9212077 25.01171875 18.74609375 C26.07436447 18.71498253 26.07436447 18.71498253 27.15847778 18.6832428 C30.76891125 18.57932294 34.37942059 18.48251429 37.99023438 18.39282227 C39.35156449 18.35570424 40.71289269 18.31851634 42.07421875 18.28125 C43.28682373 18.25095703 44.49942871 18.22066406 45.7487793 18.18945312 C48.60642433 18.0229342 51.21795669 17.64926392 54 17 C54 17.66 54 18.32 54 19 C52.42578125 20.21875 52.42578125 20.21875 50.3125 21.5 C49.62800781 21.9228125 48.94351563 22.345625 48.23828125 22.78125 C40.68555211 26.89373079 32.5435311 27.24881745 24.15625 25.359375 C21.31935232 24.41988291 18.67082309 23.33541154 16 22 C16 22.99 16 23.98 16 25 C10.72 25 5.44 25 0 25 C0 16.75 0 8.5 0 0 Z " fill="#787677" transform="translate(556,616)"/>
<path d="M0 0 C0.33 0 0.66 0 1 0 C1.33 15.84 1.66 31.68 2 48 C7.89617187 48.06058594 13.79234375 48.12117187 19.8671875 48.18359375 C23.59505967 48.22407267 27.32292426 48.26483801 31.05078125 48.30664062 C36.97214229 48.3730128 42.89350183 48.43830488 48.81494141 48.49731445 C53.58712142 48.54493737 58.35922816 48.59727942 63.13132095 48.65294075 C64.95502023 48.67337371 66.7787396 48.69208522 68.60247421 48.70907402 C71.1502588 48.73309722 73.69790422 48.76315456 76.24560547 48.79467773 C77.00517548 48.8004332 77.76474548 48.80618866 78.54733276 48.81211853 C83.77189568 48.88594784 83.77189568 48.88594784 86 50 C86 33.5 86 17 86 0 C86.33 0 86.66 0 87 0 C87 16.83 87 33.66 87 51 C58.29 51 29.58 51 0 51 C0 34.17 0 17.34 0 0 Z " fill="#928F90" transform="translate(175,502)"/>
<path d="M0 0 C23.1 0 46.2 0 70 0 C70 1.98 70 3.96 70 6 C67.33326258 6.02727345 64.66681131 6.04696948 62 6.0625 C60.88431641 6.07506836 60.88431641 6.07506836 59.74609375 6.08789062 C54.73851156 6.10966272 49.95720968 5.71541549 45 5 C45 4.34 45 3.68 45 3 C30.15 3 15.3 3 0 3 C0 2.01 0 1.02 0 0 Z " fill="#4C494A" transform="translate(477,629)"/>
<path d="M0 0 C5.28 0 10.56 0 16 0 C16.99 1.98 17.98 3.96 19 6 C19.4125 6.721875 19.825 7.44375 20.25 8.1875 C21 10 21 10 20 13 C16.85418577 13.02888514 13.70840531 13.04675923 10.5625 13.0625 C9.21575195 13.07506836 9.21575195 13.07506836 7.84179688 13.08789062 C6.56079102 13.09272461 6.56079102 13.09272461 5.25390625 13.09765625 C4.46314697 13.10289307 3.6723877 13.10812988 2.85766602 13.11352539 C1 13 1 13 0 12 C-0.14355117 7.99779347 -0.04216403 4.00558317 0 0 Z " fill="#403C3D" transform="translate(623,617)"/>
<path d="M0 0 C-2.23622056 2.57165364 -3.66955601 3.39334833 -7 4 C-9.27362133 4.14877961 -11.5506725 4.24785366 -13.828125 4.31640625 C-14.49479187 4.33718735 -15.16145874 4.35796844 -15.84832764 4.37937927 C-17.26373194 4.422564 -18.67920271 4.46361554 -20.09472656 4.50268555 C-22.20135964 4.5611501 -24.30767675 4.62663566 -26.4140625 4.69335938 C-35.94467186 4.98212762 -45.46546315 5.05037536 -55 5 C-55 3.35 -55 1.7 -55 0 C-47.64948343 -0.16813088 -40.29882126 -0.328039 -32.94799805 -0.48217773 C-30.44632904 -0.53561207 -27.94469981 -0.59094252 -25.44311523 -0.64819336 C-21.85148697 -0.73006397 -18.25977183 -0.80515863 -14.66796875 -0.87890625 C-13.54601608 -0.90594131 -12.42406342 -0.93297638 -11.26811218 -0.96083069 C-10.22725967 -0.98092697 -9.18640717 -1.00102325 -8.11401367 -1.02172852 C-6.7383448 -1.05170677 -6.7383448 -1.05170677 -5.33488464 -1.08229065 C-3 -1 -3 -1 0 0 Z " fill="#5B595A" transform="translate(612,631)"/>
<path d="M0 0 C0.33 0 0.66 0 1 0 C1 12.87 1 25.74 1 39 C8.92 39 16.84 39 25 39 C25 26.13 25 13.26 25 0 C25.33 0 25.66 0 26 0 C26 12.87 26 25.74 26 39 C27.65 39 29.3 39 31 39 C31 40.32 31 41.64 31 43 C13.675 43.495 13.675 43.495 -4 44 C-4.33 42.35 -4.66 40.7 -5 39 C-3.35 39 -1.7 39 0 39 C0 26.13 0 13.26 0 0 Z " fill="#393536" transform="translate(329,584)"/>
<path d="M0 0 C3.37586685 -0.10831658 6.74823231 -0.18746727 10.125 -0.25 C11.07632813 -0.28351563 12.02765625 -0.31703125 13.0078125 -0.3515625 C18.94718894 -0.43405384 22.57383044 -0.14301393 27 4 C27 4.99 27 5.98 27 7 C23.81256234 7.47958192 20.62503862 7.95858959 17.4375 8.4375 C16.54224609 8.57220703 15.64699219 8.70691406 14.72460938 8.84570312 C9.81890733 9.58245691 4.91193616 10.3059953 0 11 C0 7.37 0 3.74 0 0 Z " fill="#D0D0D0" transform="translate(539,400)"/>
<path d="M0 0 C2.4375 2.375 2.4375 2.375 4 5 C4 5.66 4 6.32 4 7 C-10.52 7 -25.04 7 -40 7 C-40 5.68 -40 4.36 -40 3 C-39.28457031 2.94465088 -38.56914062 2.88930176 -37.83203125 2.83227539 C-34.55453439 2.57761219 -31.27726902 2.320078 -28 2.0625 C-26.87464844 1.97548828 -25.74929688 1.88847656 -24.58984375 1.79882812 C-0.7331543 -0.08459473 -0.7331543 -0.08459473 0 0 Z " fill="#D2D2D2" transform="translate(313,549)"/>
<path d="M0 0 C12.21 0 24.42 0 37 0 C37.495 3.465 37.495 3.465 38 7 C33.06973493 6.9558881 28.14075563 6.88610136 23.21118164 6.79248047 C21.5342024 6.76425232 19.85708965 6.7430469 18.17993164 6.72900391 C15.76899782 6.70759875 13.35967216 6.66096574 10.94921875 6.609375 C10.19912033 6.60814636 9.44902191 6.60691772 8.67619324 6.60565186 C3.47947509 6.4593675 3.47947509 6.4593675 1.00317383 4.08691406 C0 2 0 2 0 0 Z " fill="#2E2A2B" transform="translate(425,623)"/>
<path d="M0 0 C2.79573484 1.61159095 3.67701663 3.68513457 5.140625 6.52734375 C5.66140625 7.51605469 6.1821875 8.50476563 6.71875 9.5234375 C7.890625 12.08984375 7.890625 12.08984375 7.890625 14.08984375 C6.80265625 14.0434375 5.7146875 13.99703125 4.59375 13.94921875 C-4.74955206 13.67645272 -12.37506697 14.32012314 -21.109375 18.08984375 C-20.89097365 14.72022297 -19.93691159 13.9378421 -17.34375 11.65234375 C-16.1900476 10.78773 -15.02822322 9.93386982 -13.859375 9.08984375 C-12.70805328 8.23605461 -11.55700779 7.38189282 -10.40625 6.52734375 C-9.56610352 5.91826172 -9.56610352 5.91826172 -8.70898438 5.296875 C-7.22568209 4.17760661 -5.82634407 2.94937182 -4.4375 1.71484375 C-2.109375 0.08984375 -2.109375 0.08984375 0 0 Z " fill="#CECECE" transform="translate(579.109375,540.91015625)"/>
<path d="M0 0 C1.98 0 3.96 0 6 0 C6 5.61 6 11.22 6 17 C-7.53 17 -21.06 17 -35 17 C-35 11.72 -35 6.44 -35 1 C-34.67 1 -34.34 1 -34 1 C-33.67 4.96 -33.34 8.92 -33 13 C-20.79 13 -8.58 13 4 13 C4.33 9.04 4.66 5.08 5 1 C3.35 1 1.7 1 0 1 C0 0.67 0 0.34 0 0 Z " fill="#7F7D7D" transform="translate(293,622)"/>
<path d="M0 0 C1.98 0 3.96 0 6 0 C6 0.33 6 0.66 6 1 C4.35 1 2.7 1 1 1 C1.33 4.63 1.66 8.26 2 12 C13.55 12.33 25.1 12.66 37 13 C37 9.04 37 5.08 37 1 C35.35 1 33.7 1 32 1 C32 0.67 32 0.34 32 0 C33.98 0 35.96 0 38 0 C38 5.61 38 11.22 38 17 C25.46 17 12.92 17 0 17 C0 11.39 0 5.78 0 0 Z " fill="#7F7D7E" transform="translate(323,622)"/>
<path d="M0 0 C2.31 0 4.62 0 7 0 C7 0.33 7 0.66 7 1 C5.02 1 3.04 1 1 1 C1 19.81 1 38.62 1 58 C-8.24 58 -17.48 58 -27 58 C-27.495 56.515 -27.495 56.515 -28 55 C-27.505 54.505 -27.505 54.505 -27 54 C-18.09 54 -9.18 54 0 54 C0 36.18 0 18.36 0 0 Z " fill="#848182" transform="translate(463,583)"/>
<path d="M0 0 C0.33 0 0.66 0 1 0 C1.33 3.96 1.66 7.92 2 12 C16.85 11.505 16.85 11.505 32 11 C32 12.98 32 14.96 32 17 C21.44 17 10.88 17 0 17 C0 11.39 0 5.78 0 0 Z " fill="#8A8788" transform="translate(383,624)"/>
<path d="M0 0 C4.29 0 8.58 0 13 0 C13 0.99 13 1.98 13 3 C11.02 3 9.04 3 7 3 C7 15.87 7 28.74 7 42 C19.54 42 32.08 42 45 42 C45 42.33 45 42.66 45 43 C32.13 43 19.26 43 6 43 C6 42.34 6 41.68 6 41 C-13.8 41 -33.6 41 -54 41 C-54 40.67 -54 40.34 -54 40 C-34.2 40 -14.4 40 6 40 C6 27.46 6 14.92 6 2 C4.02 2 2.04 2 0 2 C0 1.34 0 0.68 0 0 Z " fill="#8F8C8E" transform="translate(366,610)"/>
<path d="M0 0 C4.95 0 9.9 0 15 0 C16.32 3.3 17.64 6.6 19 10 C12.73 10 6.46 10 0 10 C0 6.7 0 3.4 0 0 Z " fill="#252022" transform="translate(557,617)"/>
<path d="M0 0 C0.67817276 0.02361099 1.35634552 0.04722198 2.05506897 0.07154846 C4.19452316 0.14735608 6.33353665 0.23172925 8.47265625 0.31640625 C9.93422413 0.3697103 11.3958127 0.42244992 12.85742188 0.47460938 C16.41692923 0.60285646 19.97609442 0.7387807 23.53515625 0.87890625 C23.53515625 2.52890625 23.53515625 4.17890625 23.53515625 5.87890625 C10.66515625 5.87890625 -2.20484375 5.87890625 -15.46484375 5.87890625 C-15.13484375 4.22890625 -14.80484375 2.57890625 -14.46484375 0.87890625 C-9.55140403 0.05677014 -4.97501548 -0.18578896 0 0 Z " fill="#626061" transform="translate(274.46484375,630.12109375)"/>
<path d="M0 0 C12.21 0 24.42 0 37 0 C37.495 1.98 37.495 1.98 38 4 C36.65421875 3.99214478 36.65421875 3.99214478 35.28125 3.98413086 C31.9191014 3.96698147 28.557 3.95449784 25.19482422 3.94506836 C23.74592348 3.94007215 22.29702769 3.93327291 20.84814453 3.92456055 C9.88504618 3.84007096 9.88504618 3.84007096 -1 5 C-0.67 3.35 -0.34 1.7 0 0 Z " fill="#464344" transform="translate(260,627)"/>
<path d="M0 0 C0.33 0 0.66 0 1 0 C1 4.29 1 8.58 1 13 C16.18 13 31.36 13 47 13 C47 13.99 47 14.98 47 16 C31.49 16 15.98 16 0 16 C0 10.72 0 5.44 0 0 Z " fill="#7A7778" transform="translate(175,623)"/>
<path d="M0 0 C14.85 0 29.7 0 45 0 C45 0.66 45 1.32 45 2 C39.39 2 33.78 2 28 2 C33.28 2.33 38.56 2.66 44 3 C44 3.33 44 3.66 44 4 C29.48 4 14.96 4 0 4 C0 2.68 0 1.36 0 0 Z " fill="#403E3F" transform="translate(176,627)"/>
<path d="M0 0 C2.86336371 2.86336371 2.30016187 4.95228346 2.3125 8.9375 C2.32925781 10.18402344 2.34601562 11.43054688 2.36328125 12.71484375 C2 16 2 16 0.76953125 17.93359375 C-1.51904794 19.31280373 -2.97366614 19.27181653 -5.625 19.125 C-7.08221251 19.05426153 -8.54108313 19.00581242 -10 19 C-10.33 19.33 -10.66 19.66 -11 20 C-13.53049402 20.07313567 -16.03304837 20.09247527 -18.5625 20.0625 C-19.27341797 20.05798828 -19.98433594 20.05347656 -20.71679688 20.04882812 C-22.47790013 20.03700864 -24.23896036 20.01907263 -26 20 C-25.690625 19.236875 -25.38125 18.47375 -25.0625 17.6875 C-24.32106407 15.81210323 -23.63771783 13.91315348 -23 12 C-23 12.66 -23 13.32 -23 14 C-15.08 14 -7.16 14 1 14 C0.67 9.38 0.34 4.76 0 0 Z " fill="#363233" transform="translate(612,609)"/>
<path d="M0 0 C0 0.66 0 1.32 0 2 C-22.77 2 -45.54 2 -69 2 C-68.67 1.34 -68.34 0.68 -68 0 C-21.82272483 -1.40027356 -21.82272483 -1.40027356 0 0 Z " fill="#3F3B3C" transform="translate(546,627)"/>
<path d="M0 0 C0.495 0.99 0.495 0.99 1 2 C-5.7299833 7.75336032 -11.78131393 7.5302728 -20.3125 6.9375 C-21.49134766 6.88400391 -22.67019531 6.83050781 -23.88476562 6.77539062 C-32.54228671 6.3051422 -32.54228671 6.3051422 -36 4 C-36 3.34 -36 2.68 -36 2 C-35.05157227 1.97494385 -34.10314453 1.9498877 -33.12597656 1.92407227 C-29.59981968 1.8288116 -26.07382041 1.72958559 -22.54785156 1.62768555 C-21.02315614 1.58443293 -19.49841531 1.54275115 -17.97363281 1.50268555 C-15.77915778 1.44474797 -13.58490932 1.38112205 -11.390625 1.31640625 C-10.37165131 1.29133751 -10.37165131 1.29133751 -9.33209229 1.26576233 C-6.09461448 1.16492528 -3.10230396 0.96860824 0 0 Z " fill="#737071" transform="translate(609,633)"/>
<path d="M0 0 C0.33 0 0.66 0 1 0 C1.33 12.87 1.66 25.74 2 39 C6.95 39 11.9 39 17 39 C17.33 30.75 17.66 22.5 18 14 C20.27492349 17.41238523 20.19555565 18.36044265 19.9765625 22.32421875 C19.925 23.35224609 19.8734375 24.38027344 19.8203125 25.43945312 C19.75585938 26.51130859 19.69140625 27.58316406 19.625 28.6875 C19.56828125 29.77095703 19.5115625 30.85441406 19.453125 31.97070312 C19.31160446 34.64780007 19.16018849 37.32396576 19 40 C20.65 40 22.3 40 24 40 C24 40.66 24 41.32 24 42 C15.75 42 7.5 42 -1 42 C-0.67 28.14 -0.34 14.28 0 0 Z " fill="#444041" transform="translate(390,584)"/>
<path d="M0 0 C19.84897863 -0.29537171 37.87023218 0.47646615 57 6 C60.00653223 6.76829703 63.01346705 7.53435015 66.0234375 8.2890625 C68 9 68 9 69 11 C64.22388546 10.27385092 59.56355687 9.20933362 54.875 8.0625 C47.95750427 6.39766478 41.04371936 5.03145023 34 4 C34 3.34 34 2.68 34 2 C22.45 2 10.9 2 -1 2 C-0.67 1.34 -0.34 0.68 0 0 Z " fill="#491B1F" transform="translate(414,293)"/>
<path d="M0 0 C0.33 0 0.66 0 1 0 C1.04254356 1.99954746 1.04080783 4.00041636 1 6 C-0.88631543 7.88631543 -4.14200693 7.24265292 -6.66015625 7.31640625 C-7.32462265 7.33718735 -7.98908905 7.35796844 -8.6736908 7.37937927 C-10.80318543 7.44493658 -12.93280668 7.50378785 -15.0625 7.5625 C-16.50326847 7.60567939 -17.94402399 7.64929349 -19.38476562 7.69335938 C-22.9230404 7.80062393 -26.46145869 7.90187371 -30 8 C-29.67 6.35 -29.34 4.7 -29 3 C-19.43 3 -9.86 3 0 3 C0 2.01 0 1.02 0 0 Z " fill="#625F60" transform="translate(414,629)"/>
<path d="M0 0 C10.23 0 20.46 0 31 0 C31 1.32 31 2.64 31 4 C21.43 4.33 11.86 4.66 2 5 C1.34 3.35 0.68 1.7 0 0 Z " fill="#625F60" transform="translate(432,633)"/>
<path d="M0 0 C10.56 0 21.12 0 32 0 C24.44971858 5.66271107 17.1777576 5.71335239 8 5 C5.20748715 4.30411657 3.4892359 3.50511938 1 2 C0.67 1.34 0.34 0.68 0 0 Z " fill="#716F6F" transform="translate(640,637)"/>
<path d="M0 0 C5.28 0 10.56 0 16 0 C16 0.33 16 0.66 16 1 C11.05 1 6.1 1 1 1 C1 6.61 1 12.22 1 18 C1.99 18 2.98 18 4 18 C4 18.99 4 19.98 4 21 C4.99 20.67 5.98 20.34 7 20 C8.89470816 19.9314505 10.7916834 19.91519628 12.6875 19.9375 C13.68136719 19.94652344 14.67523437 19.95554687 15.69921875 19.96484375 C16.83810547 19.98224609 16.83810547 19.98224609 18 20 C17.34 20.33 16.68 20.66 16 21 C16 22.32 16 23.64 16 25 C10.72 25 5.44 25 0 25 C0 16.75 0 8.5 0 0 Z " fill="#878586" transform="translate(622,616)"/>
<path d="M0 0 C6.27 0 12.54 0 19 0 C19 1.98 19 3.96 19 6 C12.73 6 6.46 6 0 6 C0 4.02 0 2.04 0 0 Z " fill="#262123" transform="translate(529,617)"/>
<path d="M0 0 C0.76554199 0.00141495 1.53108398 0.0028299 2.31982422 0.00428772 C4.73409142 0.00982772 7.14826144 0.02236846 9.5625 0.03515625 C11.21223823 0.04017902 12.86197794 0.04474056 14.51171875 0.04882812 C18.52868255 0.05977739 22.54557487 0.07699959 26.5625 0.09765625 C26.5625 1.08765625 26.5625 2.07765625 26.5625 3.09765625 C22.70652487 4.02180451 19.25757173 4.1606318 15.30078125 4.01171875 C14.09873047 3.96789062 12.89667969 3.9240625 11.65820312 3.87890625 C10.40974609 3.82734375 9.16128906 3.77578125 7.875 3.72265625 C6.64587891 3.67882812 5.41675781 3.635 4.15039062 3.58984375 C-2.74501364 3.32506023 -9.58283404 2.89847677 -16.4375 2.09765625 C-16.4375 1.76765625 -16.4375 1.43765625 -16.4375 1.09765625 C-10.90807185 0.3112366 -5.58023002 -0.03976457 0 0 Z " fill="#625F60" transform="translate(646.4375,633.90234375)"/>
<path d="M0 0 C11.88 0.33 23.76 0.66 36 1 C36 1.99 36 2.98 36 4 C24.45 4 12.9 4 1 4 C0.67 2.68 0.34 1.36 0 0 Z " fill="#605D5E" transform="translate(324,631)"/>
<path d="M0 0 C11.55 0 23.1 0 35 0 C35.495 1.98 35.495 1.98 36 4 C24.45 3.67 12.9 3.34 1 3 C0.67 2.01 0.34 1.02 0 0 Z " fill="#3D393A" transform="translate(427,626)"/>
<path d="M0 0 C0.66 0 1.32 0 2 0 C3.69140625 2.30078125 3.69140625 2.30078125 5.5625 5.3125 C6.18253906 6.29863281 6.80257813 7.28476562 7.44140625 8.30078125 C9 11 9 11 10 14 C5.05 15.485 5.05 15.485 0 17 C0 11.39 0 5.78 0 0 Z " fill="#C2C2C2" transform="translate(254,465)"/>
<path d="M0 0 C9.9 0 19.8 0 30 0 C30 0.99 30 1.98 30 3 C26.70265354 4.09911549 24.27041255 4.1139456 20.80078125 4.09765625 C19.59228516 4.09443359 18.38378906 4.09121094 17.13867188 4.08789062 C15.2447168 4.07532227 15.2447168 4.07532227 13.3125 4.0625 C11.40114258 4.05573242 11.40114258 4.05573242 9.45117188 4.04882812 C6.30073436 4.03702873 3.15039051 4.02056597 0 4 C0 2.68 0 1.36 0 0 Z " fill="#4D4A4B" transform="translate(384,629)"/>
<path d="M0 0 C4.62 0 9.24 0 14 0 C14.33 1.98 14.66 3.96 15 6 C10.05 6 5.1 6 0 6 C0 4.02 0 2.04 0 0 Z " fill="#231F20" transform="translate(624,617)"/>
<path d="M0 0 C1.299375 0.144375 2.59875 0.28875 3.9375 0.4375 C11.60669248 1.21216591 19.3049214 1.58043075 27 2 C27.495 2.99 27.495 2.99 28 4 C22.80977522 6.59511239 14.66724409 5.594748 9.14453125 4.36328125 C6.31506905 3.41705001 3.66662524 2.33331262 1 1 C1 1.99 1 2.98 1 4 C-4.28 4 -9.56 4 -15 4 C-15 3.67 -15 3.34 -15 3 C-10.05 3 -5.1 3 0 3 C0 2.01 0 1.02 0 0 Z " fill="#9B999A" transform="translate(571,637)"/>
<path d="M0 0 C0 1.32 0 2.64 0 4 C-2.71401294 5.35700647 -4.84846316 5.1123861 -7.8828125 5.09765625 C-9.04941406 5.09443359 -10.21601562 5.09121094 -11.41796875 5.08789062 C-12.64128906 5.07951172 -13.86460937 5.07113281 -15.125 5.0625 C-16.35605469 5.05798828 -17.58710937 5.05347656 -18.85546875 5.04882812 C-21.90369392 5.0370133 -24.95182314 5.02054028 -28 5 C-28 4.67 -28 4.34 -28 4 C-27.28972656 3.93941406 -26.57945312 3.87882813 -25.84765625 3.81640625 C-24.46900391 3.69072266 -24.46900391 3.69072266 -23.0625 3.5625 C-22.14597656 3.48128906 -21.22945312 3.40007813 -20.28515625 3.31640625 C-18.03840268 3.23955024 -18.03840268 3.23955024 -17 2 C-15.96875 1.855625 -14.9375 1.71125 -13.875 1.5625 C-9.97932858 1.09378583 -9.97932858 1.09378583 -6.25 -0.125 C-3 -1 -3 -1 0 0 Z " fill="#474546" transform="translate(677,627)"/>
<path d="M0 0 C0.33 0 0.66 0 1 0 C1 12.87 1 25.74 1 39 C3.64 39 6.28 39 9 39 C9 39.99 9 40.98 9 42 C4.71 42 0.42 42 -4 42 C-4.495 40.515 -4.495 40.515 -5 39 C-3.35 39 -1.7 39 0 39 C0 26.13 0 13.26 0 0 Z " fill="#3E3B3C" transform="translate(329,584)"/>
<path d="M0 0 C0.67817276 0.02361099 1.35634552 0.04722198 2.05506897 0.07154846 C4.19452316 0.14735608 6.33353665 0.23172925 8.47265625 0.31640625 C9.93422413 0.3697103 11.3958127 0.42244992 12.85742188 0.47460938 C16.41692923 0.60285646 19.97609442 0.7387807 23.53515625 0.87890625 C23.53515625 1.53890625 23.53515625 2.19890625 23.53515625 2.87890625 C10.66515625 3.20890625 -2.20484375 3.53890625 -15.46484375 3.87890625 C-15.13484375 2.88890625 -14.80484375 1.89890625 -14.46484375 0.87890625 C-9.55140403 0.05677014 -4.97501548 -0.18578896 0 0 Z " fill="#575455" transform="translate(274.46484375,630.12109375)"/>
<path d="M0 0 C17.82 0 35.64 0 54 0 C54.66 1.32 55.32 2.64 56 4 C50.555 3.505 50.555 3.505 45 3 C45 2.34 45 1.68 45 1 C30.15 1 15.3 1 0 1 C0 0.67 0 0.34 0 0 Z " fill="#545153" transform="translate(477,631)"/>
<path d="M0 0 C-0.33 0.66 -0.66 1.32 -1 2 C-9.19901949 3.34743576 -17.71311327 3.13438195 -26 3 C-25.67 5.64 -25.34 8.28 -25 11 C-25.66 11 -26.32 11 -27 11 C-30 5.375 -30 5.375 -30 2 C-19.87937028 0.39218365 -10.24426111 -0.2615556 0 0 Z " fill="#871E25" transform="translate(410,221)"/>
<path d="M0 0 C0 0.33 0 0.66 0 1 C-14.52 1 -29.04 1 -44 1 C-44 0.34 -44 -0.32 -44 -1 C-29.25683494 -2.6940904 -14.73243057 -1.26859146 0 0 Z " fill="#4C484A" transform="translate(220,630)"/>
<path d="M0 0 C0.33 1.32 0.66 2.64 1 4 C-5.27 4 -11.54 4 -18 4 C-17.67 2.68 -17.34 1.36 -17 0 C-14.54203147 -0.19436491 -12.08390706 -0.3807742 -9.625 -0.5625 C-8.92632813 -0.61857422 -8.22765625 -0.67464844 -7.5078125 -0.73242188 C-2.2265625 -1.11328125 -2.2265625 -1.11328125 0 0 Z " fill="#2F2B2C" transform="translate(575,623)"/>
<path d="M0 0 C11.38380184 -0.11858127 22.64753762 0.13387208 34 1 C33.67 1.66 33.34 2.32 33 3 C21.94305724 3.1139891 11.02363628 2.91050683 0 2 C0 1.34 0 0.68 0 0 Z " fill="#8D141B" transform="translate(411,220)"/>
<path d="M0 0 C0.33 0 0.66 0 1 0 C1 1.98 1 3.96 1 6 C5.95 6 10.9 6 16 6 C15.67 4.02 15.34 2.04 15 0 C16.9451 2.91765 17.45276317 4.62537285 18 8 C15.94921875 8.22786458 13.8984375 8.45572917 11.84765625 8.68359375 C9.98859771 8.81886614 9.98859771 8.81886614 9 10 C6.32941149 10.14115161 3.67567762 10.04247107 1 10 C-0.60725635 6.78548731 -0.05748185 3.56387464 0 0 Z " fill="#332E30" transform="translate(623,617)"/>
<path d="M0 0 C9.57 0 19.14 0 29 0 C29.33 0.66 29.66 1.32 30 2 C20.43 2.33 10.86 2.66 1 3 C0.67 2.01 0.34 1.02 0 0 Z " fill="#6F6C6D" transform="translate(433,635)"/>
<path d="M0 0 C2.64 0 5.28 0 8 0 C8 3.63 8 7.26 8 11 C4.29803058 9.76601019 3.68782836 8.10573384 1.8671875 4.7890625 C1 3 1 3 0 0 Z " fill="#444142" transform="translate(332,404)"/>
<path d="M0 0 C1.65 0.66 3.3 1.32 5 2 C4.67 2.99 4.34 3.98 4 5 C-3.26 5 -10.52 5 -18 5 C-18 4.34 -18 3.68 -18 3 C-12.06 2.67 -6.12 2.34 0 2 C0 1.34 0 0.68 0 0 Z " fill="#3F3B3C" transform="translate(575,624)"/>
<path d="M0 0 C8.91 0 17.82 0 27 0 C27 0.33 27 0.66 27 1 C21.62034057 1.68313136 16.42782018 2 11 2 C7.32771709 2.27903371 3.66403615 2.62895836 0 3 C0 2.01 0 1.02 0 0 Z " fill="#797778" transform="translate(436,637)"/>
<path d="M0 0 C0.495 0.99 0.495 0.99 1 2 C-2.69158318 4.46105545 -5.46623554 4.25575793 -9.73046875 4.1953125 C-10.48088943 4.1924826 -11.23131012 4.18965271 -12.00447083 4.18673706 C-14.39897675 4.17555062 -16.79310731 4.15044928 -19.1875 4.125 C-20.81184355 4.11496819 -22.43619297 4.10584269 -24.06054688 4.09765625 C-28.040509 4.07561637 -32.02019088 4.0410974 -36 4 C-36 3.34 -36 2.68 -36 2 C-35.05157227 1.97494385 -34.10314453 1.9498877 -33.12597656 1.92407227 C-29.59981968 1.8288116 -26.07382041 1.72958559 -22.54785156 1.62768555 C-21.02315614 1.58443293 -19.49841531 1.54275115 -17.97363281 1.50268555 C-15.77915778 1.44474797 -13.58490932 1.38112205 -11.390625 1.31640625 C-10.37165131 1.29133751 -10.37165131 1.29133751 -9.33209229 1.26576233 C-6.09461448 1.16492528 -3.10230396 0.96860824 0 0 Z " fill="#706E6F" transform="translate(609,633)"/>
<path d="M0 0 C5.04646216 0.50464622 8.53072683 1.67597795 13 4 C15.97481582 5.08130641 18.9798027 6.05367151 22 7 C22 7.99 22 8.98 22 10 C14.33204498 7.66062389 7.22862726 4.45231194 0 1 C0 0.67 0 0.34 0 0 Z " fill="#8E1C24" transform="translate(297,748)"/>
<path d="M0 0 C3.0390625 0.0234375 3.0390625 0.0234375 6.625 0.375 C7.81351563 0.48585938 9.00203125 0.59671875 10.2265625 0.7109375 C11.14179687 0.80632813 12.05703125 0.90171875 13 1 C13 1.33 13 1.66 13 2 C15.475 2.495 15.475 2.495 18 3 C18 3.33 18 3.66 18 4 C15.79194476 4.0544452 13.58349446 4.09299283 11.375 4.125 C10.14523437 4.14820313 8.91546875 4.17140625 7.6484375 4.1953125 C4.05683959 4.0030428 1.33338825 3.30258556 -2 2 C-1.34 1.34 -0.68 0.68 0 0 Z " fill="#888787" transform="translate(644,638)"/>
<path d="M0 0 C1.98 0 3.96 0 6 0 C6 0.33 6 0.66 6 1 C13.92 1.33 21.84 1.66 30 2 C29.67 2.66 29.34 3.32 29 4 C19.43 3.67 9.86 3.34 0 3 C0 2.01 0 1.02 0 0 Z " fill="#373234" transform="translate(384,624)"/>
<path d="M0 0 C2.95857409 -0.05379226 5.91617721 -0.09357093 8.875 -0.125 C9.71675781 -0.14175781 10.55851562 -0.15851562 11.42578125 -0.17578125 C12.23144531 -0.18222656 13.03710938 -0.18867187 13.8671875 -0.1953125 C14.98262939 -0.21102295 14.98262939 -0.21102295 16.12060547 -0.22705078 C18 0 18 0 20 2 C15.90996141 3.14982602 11.96822949 3.11094256 7.75 3.0625 C7.00492187 3.05798828 6.25984375 3.05347656 5.4921875 3.04882812 C3.6614236 3.03709246 1.83070127 3.0191585 0 3 C0 2.01 0 1.02 0 0 Z " fill="#2D292A" transform="translate(259,623)"/>
<path d="M0 0 C-0.33 0.99 -0.66 1.98 -1 3 C-6.28 3 -11.56 3 -17 3 C-17 2.67 -17 2.34 -17 2 C-15.989375 1.87625 -14.97875 1.7525 -13.9375 1.625 C-9.99199168 1.08863901 -9.99199168 1.08863901 -6.25 -0.125 C-3 -1 -3 -1 0 0 Z " fill="#393537" transform="translate(677,627)"/>
<path d="M0 0 C0.33 0.66 0.66 1.32 1 2 C2.98248715 2.71706982 4.98415349 3.38290413 7 4 C7.66 4.33 8.32 4.66 9 5 C9 5.66 9 6.32 9 7 C11.97 7.495 11.97 7.495 15 8 C15.33 8.99 15.66 9.98 16 11 C10.214986 9.47762789 4.72464012 6.66953274 0 3 C0 2.01 0 1.02 0 0 Z " fill="#88151D" transform="translate(281,737)"/>
<path d="M0 0 C-2 2 -2 2 -4.15478516 2.13525391 C-5.02409668 2.08288574 -5.8934082 2.03051758 -6.7890625 1.9765625 C-8.20058594 1.89921875 -8.20058594 1.89921875 -9.640625 1.8203125 C-10.62546875 1.75585938 -11.6103125 1.69140625 -12.625 1.625 C-13.61757813 1.56828125 -14.61015625 1.5115625 -15.6328125 1.453125 C-18.08924767 1.31140759 -20.54469735 1.15997723 -23 1 C-23 0.67 -23 0.34 -23 0 C-19.91722144 -0.1974877 -16.8337715 -0.38123332 -13.75 -0.5625 C-12.87730469 -0.61857422 -12.00460937 -0.67464844 -11.10546875 -0.73242188 C-10.26113281 -0.78076172 -9.41679688 -0.82910156 -8.546875 -0.87890625 C-7.77182617 -0.9260376 -6.99677734 -0.97316895 -6.19824219 -1.02172852 C-3.96887415 -0.99969234 -2.13101433 -0.6303897 0 0 Z " fill="#7D7B7C" transform="translate(604,638)"/>
<path d="M0 0 C1.1875 1.6875 1.1875 1.6875 2 4 C1.0625 6.75 1.0625 6.75 -1 9 C-4.6875 9.3125 -4.6875 9.3125 -8 9 C-7.67 8.01 -7.34 7.02 -7 6 C-5.02 5.67 -3.04 5.34 -1 5 C-0.67 3.35 -0.34 1.7 0 0 Z " fill="#524F50" transform="translate(587,620)"/>
<path d="M0 0 C2.97 0 5.94 0 9 0 C9.33 0.99 9.66 1.98 10 3 C6.7 3 3.4 3 0 3 C0 2.01 0 1.02 0 0 Z " fill="#3E3A3B" transform="translate(537,602)"/>
<path d="M0 0 C0.33 0.66 0.66 1.32 1 2 C-2.01490557 3.00496852 -4.04181692 3.10335303 -7.1875 3.0625 C-8.53908203 3.04896484 -8.53908203 3.04896484 -9.91796875 3.03515625 C-10.60503906 3.02355469 -11.29210937 3.01195312 -12 3 C-8.62446616 -0.37553384 -4.59080647 -0.1311659 0 0 Z " fill="#7A7879" transform="translate(667,638)"/>
<path d="M0 0 C2.31 0 4.62 0 7 0 C6.67 1.32 6.34 2.64 6 4 C3.03 3.505 3.03 3.505 0 3 C0 2.01 0 1.02 0 0 Z " fill="#474546" transform="translate(540,629)"/>
<path d="M0 0 C0.99 0.33 1.98 0.66 3 1 C3.6875 3.0625 3.6875 3.0625 4 5 C1.69 4.67 -0.62 4.34 -3 4 C-2.01 2.68 -1.02 1.36 0 0 Z " fill="#4B4949" transform="translate(583,550)"/>
<path d="M0 0 C0.75 1.625 0.75 1.625 1 4 C-0.8125 7.25 -0.8125 7.25 -3 10 C-3.66 10 -4.32 10 -5 10 C-3.66511872 6.40608886 -2.03977277 3.24509304 0 0 Z " fill="#93262E" transform="translate(290,722)"/>
<path d="M0 0 C0.33 0.66 0.66 1.32 1 2 C2.99571323 2.67939174 4.99594773 3.34561559 7 4 C7.66 4.66 8.32 5.32 9 6 C5.26512223 5.5020163 3.18762365 5.12508244 0 3 C0 2.01 0 1.02 0 0 Z " fill="#8E1C24" transform="translate(281,737)"/>
</svg>
